<svg width="37" height="36" viewBox="0 0 37 36" fill="none" xmlns="http://www.w3.org/2000/svg">
<circle cx="18.5" cy="18" r="18" fill="#FFB84C"/>
<path d="M19.0001 14.35C18.4287 14.057 17.7799 13.9506 17.1449 14.0457C16.5099 14.1408 15.9206 14.4326 15.4601 14.88C14.8983 15.4425 14.5827 16.205 14.5827 17C14.5827 17.795 14.8983 18.5575 15.4601 19.12L18.2901 22C18.3831 22.0937 18.4937 22.1681 18.6155 22.2189C18.7374 22.2697 18.8681 22.2958 19.0001 22.2958C19.1321 22.2958 19.2628 22.2697 19.3847 22.2189C19.5065 22.1681 19.6171 22.0937 19.7101 22L22.5401 19.17C23.1019 18.6075 23.4175 17.845 23.4175 17.05C23.4175 16.255 23.1019 15.4925 22.5401 14.93C22.0854 14.4744 21.4989 14.1733 20.8636 14.0692C20.2284 13.9651 19.5765 14.0633 19.0001 14.35ZM21.1201 17.71L19.0001 19.83L16.8801 17.71C16.7864 17.617 16.712 17.5064 16.6612 17.3846C16.6105 17.2627 16.5843 17.132 16.5843 17C16.5843 16.868 16.6105 16.7373 16.6612 16.6154C16.712 16.4936 16.7864 16.383 16.8801 16.29C17.0675 16.1037 17.3209 15.9992 17.5851 15.9992C17.8493 15.9992 18.1027 16.1037 18.2901 16.29C18.3831 16.3837 18.4937 16.4581 18.6155 16.5089C18.7374 16.5597 18.8681 16.5858 19.0001 16.5858C19.1321 16.5858 19.2628 16.5597 19.3847 16.5089C19.5065 16.4581 19.6171 16.3837 19.7101 16.29C19.8975 16.1037 20.1509 15.9992 20.4151 15.9992C20.6793 15.9992 20.9327 16.1037 21.1201 16.29C21.2138 16.383 21.2882 16.4936 21.339 16.6154C21.3898 16.7373 21.4159 16.868 21.4159 17C21.4159 17.132 21.3898 17.2627 21.339 17.3846C21.2882 17.5064 21.2138 17.617 21.1201 17.71ZM19.0001 8C17.6869 8 16.3865 8.25866 15.1733 8.7612C13.96 9.26375 12.8576 10.0003 11.929 10.9289C10.0537 12.8043 9.00011 15.3478 9.00011 18C8.99137 20.3091 9.7909 22.5485 11.2601 24.33L9.26011 26.33C9.12135 26.4706 9.02736 26.6492 8.98998 26.8432C8.95261 27.0372 8.97353 27.2379 9.05011 27.42C9.13317 27.5999 9.26781 27.7511 9.43696 27.8544C9.6061 27.9577 9.80211 28.0083 10.0001 28H19.0001C21.6523 28 24.1958 26.9464 26.0712 25.0711C27.9465 23.1957 29.0001 20.6522 29.0001 18C29.0001 15.3478 27.9465 12.8043 26.0712 10.9289C24.1958 9.05357 21.6523 8 19.0001 8ZM19.0001 26H12.4101L13.3401 25.07C13.5264 24.8826 13.6309 24.6292 13.6309 24.365C13.6309 24.1008 13.5264 23.8474 13.3401 23.66C12.0307 22.352 11.2153 20.6305 11.0328 18.7888C10.8503 16.947 11.3121 15.099 12.3393 13.5595C13.3666 12.02 14.8959 10.8844 16.6666 10.346C18.4374 9.80759 20.34 9.8998 22.0503 10.6069C23.7607 11.314 25.173 12.5923 26.0465 14.2239C26.9201 15.8555 27.201 17.7395 26.8412 19.555C26.4815 21.3705 25.5034 23.005 24.0736 24.1802C22.6439 25.3554 20.8509 25.9985 19.0001 26Z" fill="white"/>
</svg>
