<svg width="13" height="14" viewBox="0 0 13 14" fill="none" xmlns="http://www.w3.org/2000/svg">
<path d="M8.2 4.99375L5.51875 7.68125L4.4875 6.65C4.43147 6.58457 4.36252 6.53144 4.28498 6.49392C4.20744 6.45641 4.12299 6.43533 4.03691 6.432C3.95084 6.42868 3.865 6.44318 3.7848 6.4746C3.7046 6.50602 3.63176 6.55368 3.57085 6.61459C3.50994 6.6755 3.46228 6.74835 3.43085 6.82855C3.39943 6.90875 3.38493 6.99458 3.38825 7.08066C3.39158 7.16673 3.41266 7.25119 3.45017 7.32873C3.48769 7.40627 3.54083 7.47522 3.60625 7.53125L5.075 9.00625C5.1334 9.06418 5.20266 9.11 5.27881 9.14111C5.35496 9.17221 5.4365 9.18798 5.51875 9.1875C5.68272 9.18681 5.83984 9.12172 5.95625 9.00625L9.08125 5.88125C9.13983 5.82315 9.18633 5.75402 9.21806 5.67786C9.24979 5.6017 9.26613 5.52001 9.26613 5.4375C9.26613 5.35499 9.24979 5.2733 9.21806 5.19714C9.18633 5.12098 9.13983 5.05185 9.08125 4.99375C8.96415 4.87734 8.80574 4.812 8.64063 4.812C8.47551 4.812 8.3171 4.87734 8.2 4.99375ZM6.5 0.75C5.26387 0.75 4.0555 1.11656 3.02769 1.80331C1.99988 2.49007 1.1988 3.46619 0.725756 4.60823C0.252708 5.75027 0.128937 7.00693 0.370095 8.21931C0.611252 9.4317 1.20651 10.5453 2.08059 11.4194C2.95466 12.2935 4.06831 12.8888 5.28069 13.1299C6.49307 13.3711 7.74974 13.2473 8.89177 12.7742C10.0338 12.3012 11.0099 11.5001 11.6967 10.4723C12.3834 9.44451 12.75 8.23613 12.75 7C12.75 6.17924 12.5883 5.36651 12.2743 4.60823C11.9602 3.84994 11.4998 3.16095 10.9194 2.58058C10.3391 2.00022 9.65006 1.53984 8.89177 1.22575C8.13349 0.911661 7.32076 0.75 6.5 0.75V0.75ZM6.5 12C5.5111 12 4.5444 11.7068 3.72215 11.1573C2.89991 10.6079 2.25904 9.82705 1.88061 8.91342C1.50217 7.99979 1.40315 6.99445 1.59608 6.02455C1.789 5.05464 2.26521 4.16373 2.96447 3.46447C3.66373 2.7652 4.55465 2.289 5.52455 2.09607C6.49446 1.90315 7.49979 2.00216 8.41342 2.3806C9.32705 2.75904 10.1079 3.3999 10.6574 4.22215C11.2068 5.04439 11.5 6.01109 11.5 7C11.5 8.32608 10.9732 9.59785 10.0355 10.5355C9.09786 11.4732 7.82609 12 6.5 12V12Z" fill="#FFB84C"/>
</svg>
