<svg width="19" height="19" viewBox="0 0 19 19" fill="none" xmlns="http://www.w3.org/2000/svg">
<path d="M17.4162 7.65571C17.3662 7.51091 17.2752 7.38372 17.1544 7.28957C17.0336 7.19542 16.888 7.13836 16.7353 7.1253L12.2308 6.46821L10.212 2.3753C10.1472 2.24145 10.046 2.12857 9.91996 2.04959C9.79395 1.9706 9.64823 1.92871 9.49951 1.92871C9.35079 1.92871 9.20508 1.9706 9.07907 2.04959C8.95306 2.12857 8.85184 2.24145 8.78701 2.3753L6.76826 6.4603L2.26368 7.1253C2.11716 7.14612 1.97941 7.2076 1.86607 7.30276C1.75272 7.39791 1.66832 7.52293 1.62243 7.66363C1.58043 7.80112 1.57666 7.94746 1.61153 8.08693C1.6464 8.2264 1.71858 8.35375 1.82035 8.4553L5.08993 11.622L4.29826 16.1186C4.27 16.2671 4.2848 16.4205 4.34091 16.5607C4.39702 16.701 4.49211 16.8223 4.61493 16.9103C4.73464 16.9959 4.87584 17.0464 5.02268 17.0562C5.16951 17.066 5.31617 17.0346 5.44618 16.9657L9.49951 14.852L13.537 16.9736C13.6481 17.0363 13.7736 17.069 13.9012 17.0686C14.0689 17.0692 14.2324 17.0166 14.3683 16.9182C14.4911 16.8302 14.5862 16.7089 14.6423 16.5687C14.6984 16.4284 14.7132 16.275 14.6849 16.1265L13.8933 11.6299L17.1628 8.46321C17.2771 8.36638 17.3616 8.2391 17.4065 8.09616C17.4513 7.95322 17.4547 7.80049 17.4162 7.65571ZM12.5474 10.8224C12.4546 10.9122 12.3851 11.0233 12.3451 11.1462C12.3051 11.269 12.2957 11.3997 12.3178 11.527L12.8878 14.844L9.91118 13.2607C9.79664 13.1997 9.66886 13.1678 9.5391 13.1678C9.40933 13.1678 9.28155 13.1997 9.16701 13.2607L6.19035 14.844L6.76035 11.527C6.78246 11.3997 6.7731 11.269 6.73309 11.1462C6.69307 11.0233 6.62361 10.9122 6.53076 10.8224L4.15576 8.44738L7.48868 7.96446C7.61693 7.94663 7.73885 7.8976 7.84374 7.82169C7.94864 7.74578 8.03331 7.64529 8.09035 7.52905L9.49951 4.5128L10.9878 7.53696C11.0449 7.65321 11.1296 7.75369 11.2345 7.82961C11.3393 7.90552 11.4613 7.95454 11.5895 7.97238L14.9224 8.4553L12.5474 10.8224Z" fill="#FFB84C"/>
</svg>
