<svg width="375" height="812" viewBox="0 0 375 812" fill="none" xmlns="http://www.w3.org/2000/svg">
<g clip-path="url(#clip0_139_4240)">
<rect width="375" height="812" fill="white"/>
<g clip-path="url(#clip1_139_4240)">
<rect width="375" height="812" fill="#2B2B2B"/>
<g clip-path="url(#clip2_139_4240)">
<path d="M128.007 698.428L133.997 696.537V692.369H137.038V698.428L143.028 696.537V683H135.173L137.038 684.278V689.649H133.997V683H126.142L128.007 684.278V698.428Z" fill="#FFB84C"/>
<path d="M125.065 698.428V696.395H119.469V685.061H125.163V683H100.329L102.293 684.278V698.428H125.065ZM108.671 685.061H113.085V696.401H108.671V685.061Z" fill="#FFB84C"/>
<path d="M199.063 696.367H218.446L215.596 698.428H192.685V684.278L190.773 683L215.602 683.216L218.452 685.061H199.069V696.367H199.063ZM194.742 708.553V701.546L192.83 700.268H201.125V708.553M233.421 691.188H228.56V701.472L222.182 704.362V684.278L220.271 683H228.566V688.502H236.421L233.426 691.188H233.421Z" fill="white"/>
<path d="M263.416 698.428L257.136 694.067V685.061H237.701C235.998 683.948 234.955 683.261 234.562 683H263.416V698.428V698.428ZM239.764 708.553V705.804L237.8 704.527H267.245V702.329L242.243 702.46L238.02 700.268H273.524V706.594H246.141V708.558M273.524 695.555L267.245 698.434V684.278L265.281 683H273.524V695.549V695.555Z" fill="white"/>
<path d="M98.0004 709.461H99.6514V709.063H98.0004V709.461Z" fill="#2B2B2B"/>
<path d="M141.354 701.818C139.466 700.785 137.16 700.268 134.432 700.268H112.39C109.662 700.268 107.35 700.785 105.467 701.818C103.579 702.852 102.635 704.095 102.635 705.543C102.635 706.895 103.469 708.064 105.114 709.058H106.232V709.456H105.838C107.657 710.364 109.835 710.824 112.39 710.824H134.432C136.987 710.824 139.17 710.364 140.984 709.456H140.706V709.058H141.708C143.353 708.064 144.187 706.895 144.187 705.543C144.187 704.095 143.243 702.852 141.354 701.818ZM109.517 709.456H107.866V709.058H109.517V709.456ZM112.801 709.456H111.15V709.058H112.801V709.456ZM116.086 709.456H114.435V709.058H116.086V709.456ZM119.347 709.456H117.696V709.058H119.347V709.456ZM122.632 709.456H120.981V709.058H122.632V709.456ZM125.916 709.456H124.265V709.058H125.916V709.456ZM129.201 709.456H127.55V709.058H129.201V709.456ZM132.485 709.456H130.835V709.058H132.485V709.456ZM135.77 709.456H134.119V709.058H135.77V709.456ZM135.851 707.133C134.554 707.701 133.018 707.979 131.228 707.979H115.57C113.786 707.979 112.245 707.695 110.948 707.133C109.65 706.571 109.007 705.89 109.007 705.1C109.007 704.311 109.656 703.635 110.948 703.067C112.239 702.5 113.78 702.221 115.57 702.221H131.24C133.024 702.221 134.565 702.505 135.863 703.067C137.16 703.635 137.803 704.311 137.803 705.1C137.803 705.89 137.155 706.565 135.863 707.133H135.851ZM139.06 709.456H137.409V709.058H139.06V709.456Z" fill="#FFB84C"/>
<path d="M275.28 709.455H274.463V709.058H274.834L273.525 707.883H156.126V695.316H175.561V683H146.701L149.795 685.061H169.178V693.249H147.877L149.789 694.527V709.052H151.208V709.45H149.789V710.994H276.995L275.274 709.45L275.28 709.455ZM154.498 709.455H152.847V709.058H154.498V709.455ZM157.783 709.455H156.132V709.058H157.783V709.455ZM161.068 709.455H159.417V709.058H161.068V709.455ZM164.352 709.455H162.701V709.058H164.352V709.455ZM167.637 709.455H165.986V709.058H167.637V709.455ZM170.921 709.455H169.27V709.058H170.921V709.455ZM174.206 709.455H172.555V709.058H174.206V709.455ZM177.49 709.455H175.839V709.058H177.49V709.455ZM180.775 709.455H179.124V709.058H180.775V709.455ZM184.059 709.455H182.408V709.058H184.059V709.455ZM187.344 709.455H185.693V709.058H187.344V709.455ZM190.629 709.455H188.978V709.058H190.629V709.455ZM193.913 709.455H192.262V709.058H193.913V709.455ZM197.198 709.455H195.547V709.058H197.198V709.455ZM200.482 709.455H198.831V709.058H200.482V709.455ZM203.767 709.455H202.116V709.058H203.767V709.455ZM207.051 709.455H205.4V709.058H207.051V709.455ZM210.336 709.455H208.685V709.058H210.336V709.455ZM213.621 709.455H211.97V709.058H213.621V709.455ZM216.905 709.455H215.254V709.058H216.905V709.455ZM220.19 709.455H218.539V709.058H220.19V709.455ZM223.474 709.455H221.823V709.058H223.474V709.455ZM226.759 709.455H225.108V709.058H226.759V709.455ZM230.043 709.455H228.392V709.058H230.043V709.455ZM233.328 709.455H231.677V709.058H233.328V709.455ZM236.612 709.455H234.961V709.058H236.612V709.455ZM239.897 709.455H238.246V709.058H239.897V709.455ZM243.182 709.455H241.531V709.058H243.182V709.455ZM246.466 709.455H244.815V709.058H246.466V709.455ZM249.751 709.455H248.1V709.058H249.751V709.455ZM253.035 709.455H251.384V709.058H253.035V709.455ZM256.32 709.455H254.669V709.058H256.32V709.455ZM259.604 709.455H257.953V709.058H259.604V709.455ZM262.889 709.455H261.238V709.058H262.889V709.455ZM266.174 709.455H264.523V709.058H266.174V709.455ZM269.458 709.455H267.807V709.058H269.458V709.455ZM272.743 709.455H271.092V709.058H272.743V709.455Z" fill="white"/>
<path d="M179.292 704.43L185.67 701.966L185.572 683H177.276L179.194 684.278L179.292 704.43Z" fill="white"/>
</g>
<path d="M128.425 648.313V647.242H126.164V643.332H124.872V652.223H126.164V648.313H128.425ZM126.351 655.3C126.351 653.634 124.634 652.461 121.421 652.461C118.191 652.461 116.508 653.6 116.508 655.3C116.508 656.983 118.191 658.122 121.421 658.122C124.634 658.122 126.351 656.966 126.351 655.3ZM125.008 655.3C125.008 656.371 123.665 657.051 121.421 657.051C119.177 657.051 117.851 656.354 117.851 655.3C117.851 654.246 119.177 653.549 121.421 653.549C123.665 653.549 125.008 654.229 125.008 655.3ZM116.542 650.132V645.61H121.948V644.522H115.25V651.203H116.457C119.024 651.203 121.778 650.982 123.427 650.693L123.291 649.639C121.846 649.911 119.33 650.132 117.273 650.132H116.542ZM141.604 654.127V643.332H140.312V654.127H141.604ZM138.442 650.744C136.674 650.115 134.668 648.279 134.668 645.797V644.182H133.359V645.831C133.359 648.211 131.438 650.387 129.483 651.254L130.265 652.274C131.88 651.458 133.597 649.741 134.039 648.143C134.651 649.707 136.181 651.118 137.711 651.781L138.442 650.744ZM141.927 657.731V656.66H133.308V653.158H132.016V657.731H141.927ZM157.588 650.846V649.758H144.175V650.846H157.588ZM156.092 646.12C156.092 644.488 154.12 643.536 150.89 643.536C147.694 643.536 145.722 644.488 145.722 646.12C145.722 647.752 147.694 648.687 150.89 648.687C154.12 648.687 156.092 647.752 156.092 646.12ZM150.89 644.59C153.253 644.59 154.783 645.185 154.783 646.12C154.783 647.038 153.253 647.616 150.89 647.616C148.561 647.616 147.048 647.038 147.048 646.12C147.048 645.185 148.561 644.59 150.89 644.59ZM156.398 658.054V657H147.031V655.504H155.905V652.172H145.705V653.209H154.613V654.518H145.739V658.054H156.398ZM172.054 647.259C172.054 645.372 170.456 644.063 168.161 644.063C165.849 644.063 164.251 645.372 164.251 647.259C164.251 649.112 165.849 650.421 168.161 650.421C170.439 650.421 172.054 649.112 172.054 647.259ZM175.624 658.19V643.332H174.315V658.19H175.624ZM170.796 647.259C170.796 648.585 169.64 649.333 168.161 649.333C166.665 649.333 165.492 648.585 165.492 647.259C165.492 645.916 166.665 645.151 168.161 645.151C169.64 645.151 170.796 645.916 170.796 647.259ZM168.739 657.748V652.58C170.439 652.495 172.36 652.376 173.482 652.223L173.431 651.22C171.986 651.373 170.099 651.492 168.246 651.543C166.597 651.611 164.982 651.594 163.214 651.594L163.418 652.75C164.727 652.733 166.053 652.716 167.447 652.648V657.748H168.739ZM191.744 649.452V648.364H189.483V643.332H188.191V654.297H189.483V649.452H191.744ZM190.061 657.714V656.626H181.459V653.906H180.167V657.714H190.061ZM184.4 644.998V643.859H180.116V644.998H184.4ZM186.695 647.191V646.12H177.991V647.191H186.695ZM185.845 650.591C185.845 648.993 184.349 647.99 182.343 647.99C180.354 647.99 178.858 648.993 178.858 650.591C178.858 652.155 180.371 653.192 182.343 653.192C184.349 653.192 185.845 652.155 185.845 650.591ZM184.621 650.591C184.621 651.56 183.55 652.155 182.343 652.155C181.153 652.155 180.082 651.56 180.082 650.591C180.082 649.605 181.153 649.01 182.343 649.01C183.55 649.01 184.621 649.605 184.621 650.591ZM210.918 648.568V647.48H208.657V643.332H207.365V653.107H208.657V648.568H210.918ZM209.915 657.153C207.722 656.847 204.951 655.113 204.951 653.022V652.444H203.591V653.022C203.591 655.113 200.99 656.881 198.593 657.187L199.222 658.241C201.432 657.816 203.659 656.337 204.237 654.892C204.849 656.269 207.314 657.85 209.252 658.224L209.915 657.153ZM204.866 651.084V644.624H197.777V651.084H204.866ZM203.574 650.013H199.086V645.695H203.574V650.013ZM224.08 657.986V652.087H222.788V653.974H215.801V652.138H214.509V657.986H224.08ZM212.52 645.457H215.903C215.903 645.661 215.886 645.848 215.886 645.967C215.801 647.939 213.88 649.894 212.01 650.608L212.758 651.611C214.356 650.931 216.141 649.248 216.532 647.854C217.144 649.197 218.725 650.557 220.153 651.135L220.867 650.098C219.167 649.537 217.331 647.888 217.229 645.984C217.212 645.865 217.212 645.661 217.212 645.457H220.697V644.369H212.52V645.457ZM222.788 656.915H215.801V655.011H222.788V656.915ZM224.08 651.322V643.332H222.788V651.322H224.08ZM240.297 653.685C238.257 652.58 236.37 650.183 236.37 647.412V645.899H239.838V644.828H231.559V645.899H235.027V647.429C235.027 650.234 233.242 652.767 231.066 654.042L231.865 654.994C233.582 653.889 235.214 651.985 235.707 650.132C236.217 651.883 238.104 653.753 239.498 654.654L240.297 653.685ZM242.014 643.332V658.19H243.306V643.332H242.014ZM259.239 656.303V655.215H253.153V651.577H257.726V650.506H248.75V645.661H257.641V644.59H247.441V651.577H251.861V655.215H245.826V656.303H259.239Z" fill="white"/>
<path d="M290 652H375" stroke="url(#paint0_linear_139_4240)"/>
<path d="M81 652H-4" stroke="url(#paint1_linear_139_4240)"/>
<rect x="136" y="790" width="104" height="8" rx="4" fill="white"/>
<path fill-rule="evenodd" clip-rule="evenodd" d="M68.7187 149.536C64.7911 149.647 60.8338 150.707 57.1923 152.809C45.4883 159.567 41.4783 174.532 48.2356 186.236C54.9928 197.94 69.9586 201.95 81.6626 195.193C84.3004 193.67 86.5474 191.73 88.3684 189.505C79.6726 189.749 71.1226 185.338 66.4678 177.275C61.2334 168.209 62.4599 157.186 68.7187 149.536Z" fill="#FFB84D"/>
<circle cx="97.8345" cy="168.701" r="5.20165" fill="#FFB84D"/>
<circle cx="58.3022" cy="222.798" r="5.20165" fill="#FFB84D"/>
<circle cx="111.359" cy="203.032" r="8.32264" fill="#FFB84D"/>
<circle cx="271.323" cy="226.323" r="8.32264" fill="#FFB84D"/>
<circle cx="310" cy="185.646" r="5" fill="#FFB84D"/>
<circle cx="150" cy="211" r="5" fill="#FFB84D"/>
<path d="M34.9656 16.4453C32.5203 16.4453 30.7781 18.1172 30.7781 20.4062V20.4219C30.7781 22.5625 32.2938 24.1406 34.4578 24.1406C36.0047 24.1406 36.9891 23.3516 37.4031 22.4609H37.5594C37.5594 22.5469 37.5516 22.6328 37.5516 22.7188C37.4656 24.875 36.7078 26.625 34.9188 26.625C33.9266 26.625 33.2313 26.1094 32.9344 25.3203L32.9109 25.2422H30.9266L30.9422 25.3281C31.3016 27.0547 32.8484 28.2812 34.9188 28.2812C37.7547 28.2812 39.4656 26.0312 39.4656 22.2344V22.2188C39.4656 18.1562 37.3719 16.4453 34.9656 16.4453ZM34.9578 22.5938C33.6766 22.5938 32.7469 21.6562 32.7469 20.3516V20.3359C32.7469 19.0781 33.7391 18.0859 34.9813 18.0859C36.2313 18.0859 37.2078 19.0938 37.2078 20.3828V20.3984C37.2078 21.6719 36.2313 22.5938 34.9578 22.5938ZM42.7125 20.6953C43.4313 20.6953 43.9547 20.1484 43.9547 19.4609C43.9547 18.7656 43.4313 18.2266 42.7125 18.2266C42.0016 18.2266 41.4703 18.7656 41.4703 19.4609C41.4703 20.1484 42.0016 20.6953 42.7125 20.6953ZM42.7125 26.4922C43.4313 26.4922 43.9547 25.9531 43.9547 25.2578C43.9547 24.5625 43.4313 24.0234 42.7125 24.0234C42.0016 24.0234 41.4703 24.5625 41.4703 25.2578C41.4703 25.9531 42.0016 26.4922 42.7125 26.4922ZM51.4281 28H53.3578V25.8359H54.8734V24.1719H53.3578V16.7266H50.5063C48.975 19.0547 47.3734 21.6484 45.9125 24.1875V25.8359H51.4281V28ZM47.7875 24.2188V24.1016C48.8813 22.1875 50.1859 20.1016 51.3422 18.3359H51.4594V24.2188H47.7875ZM59.2453 28H61.2609V16.7266H59.2531L56.3078 18.7969V20.6953L59.1125 18.7109H59.2453V28Z" fill="white"/>
<path d="M306.12 26H310.578V24.9404H307.38V18.9541H306.12V26ZM312.238 26H313.493V20.0137H315.598V18.9541H310.129V20.0137H312.238V26ZM316.462 26H321.022V24.9404H317.722V22.9336H320.842V21.9131H317.722V20.0137H321.022V18.9541H316.462V26Z" fill="white"/>
<rect opacity="0.32" x="330" y="16.5" width="21" height="11" rx="2.5" stroke="white"/>
<rect x="331.5" y="18" width="18" height="8" rx="1" fill="white"/>
<path opacity="0.32" d="M352.5 24C353.605 24 354.5 23.1046 354.5 22C354.5 20.8954 353.605 20 352.5 20V24Z" fill="white"/>
<path fill-rule="evenodd" clip-rule="evenodd" d="M295.5 17C294.948 17 294.5 17.4477 294.5 18V26C294.5 26.5523 294.948 27 295.5 27H296.5C297.052 27 297.5 26.5523 297.5 26V18C297.5 17.4477 297.052 17 296.5 17H295.5ZM289.5 20C289.5 19.4477 289.948 19 290.5 19H291.5C292.052 19 292.5 19.4477 292.5 20V26C292.5 26.5523 292.052 27 291.5 27H290.5C289.948 27 289.5 26.5523 289.5 26V20ZM285.5 21C284.948 21 284.5 21.4477 284.5 22V26C284.5 26.5523 284.948 27 285.5 27H286.5C287.052 27 287.5 26.5523 287.5 26V22C287.5 21.4477 287.052 21 286.5 21H285.5ZM280.5 23C279.948 23 279.5 23.4477 279.5 24V26C279.5 26.5523 279.948 27 280.5 27H281.5C282.052 27 282.5 26.5523 282.5 26V24C282.5 23.4477 282.052 23 281.5 23H280.5Z" fill="white"/>
</g>
<path fill-rule="evenodd" clip-rule="evenodd" d="M147.686 90.1025C147.686 97.0548 142.05 102.691 135.098 102.691C135.098 102.691 135.098 102.691 135.098 102.691C135.098 102.691 135.098 102.691 135.098 102.691C142.05 102.691 147.686 108.327 147.686 115.279C147.686 108.327 153.322 102.691 160.274 102.691C153.322 102.691 147.686 97.0549 147.686 90.1026C147.686 90.1026 147.686 90.1025 147.686 90.1025C147.686 90.1025 147.686 90.1025 147.686 90.1025Z" fill="white"/>
<path fill-rule="evenodd" clip-rule="evenodd" d="M288.097 133.932C284.304 139.73 285.911 147.498 291.68 151.318C285.868 147.563 278.108 149.203 274.315 155C274.314 155 274.314 155.001 274.314 155.001C274.314 155.001 274.314 155.001 274.314 155C274.314 155 274.314 155 274.314 155C278.104 149.207 276.504 141.447 270.746 137.623C276.556 141.367 284.307 139.725 288.097 133.932C288.097 133.932 288.097 133.932 288.097 133.932C288.097 133.932 288.097 133.932 288.097 133.932Z" fill="white"/>
<path fill-rule="evenodd" clip-rule="evenodd" d="M38.5879 232.77C38.5879 239.722 32.9521 245.358 26 245.358C32.9521 245.358 38.5879 250.994 38.5879 257.946C38.5879 257.946 38.5879 257.946 38.5879 257.946C38.5879 257.946 38.5879 257.946 38.5879 257.946C38.5879 250.994 44.2238 245.358 51.1761 245.358M51.1761 245.358C44.2239 245.358 38.5879 239.722 38.5879 232.77Z" fill="#FFB84C"/>
<path fill-rule="evenodd" clip-rule="evenodd" d="M174.962 121.573C174.962 125.049 172.144 127.867 168.667 127.867C168.667 127.867 168.667 127.867 168.667 127.867C168.667 127.867 168.667 127.867 168.667 127.867C172.144 127.867 174.962 130.685 174.962 134.161C174.962 130.685 177.779 127.868 181.255 127.867C177.779 127.867 174.962 125.049 174.962 121.573Z" fill="white"/>
<path fill-rule="evenodd" clip-rule="evenodd" d="M239.33 147.155C239.33 147.156 239.33 147.156 239.331 147.156C242.221 149.047 246.091 148.254 248.007 145.39C246.15 148.293 246.973 152.156 249.863 154.048C249.863 154.048 249.863 154.048 249.863 154.048C246.975 152.158 243.108 152.949 241.19 155.809C243.043 152.906 242.219 149.046 239.33 147.156C239.33 147.156 239.33 147.156 239.329 147.156C239.329 147.156 239.329 147.156 239.33 147.155Z" fill="white"/>
<path fill-rule="evenodd" clip-rule="evenodd" d="M208.53 132.102C208.509 135.56 205.699 138.357 202.236 138.357C202.236 138.357 202.235 138.357 202.235 138.357C202.235 138.357 202.235 138.357 202.235 138.357C205.711 138.357 208.529 141.175 208.529 144.651C208.529 141.175 211.347 138.357 214.824 138.357C211.36 138.357 208.55 135.56 208.53 132.102Z" fill="#FFB84C"/>
<path fill-rule="evenodd" clip-rule="evenodd" d="M267.274 64.9263C267.274 68.4023 264.456 71.2203 260.98 71.2204C264.456 71.2205 267.274 74.0384 267.274 77.5145C267.274 74.0384 270.092 71.2204 273.568 71.2204M267.274 64.9263C267.274 68.4024 270.092 71.2204 273.568 71.2204Z" fill="white"/>
<path fill-rule="evenodd" clip-rule="evenodd" d="M288.255 71.2202C288.255 74.6963 285.437 77.5142 281.961 77.5143C285.437 77.5145 288.255 80.3324 288.255 83.8085C288.255 80.3323 291.073 77.5143 294.549 77.5143M288.255 71.2202C288.255 74.6964 291.073 77.5143 294.549 77.5143Z" fill="white"/>
<path fill-rule="evenodd" clip-rule="evenodd" d="M193.094 49.2117C193.095 49.212 193.095 49.2123 193.096 49.2126C195.986 51.1037 199.856 50.3106 201.772 47.4464C199.915 50.3491 200.738 54.2125 203.628 56.1039C203.628 56.104 203.628 56.104 203.628 56.1041C200.739 54.2146 196.873 55.0055 194.955 57.8651C196.808 54.9629 195.984 51.1027 193.095 49.2128C193.095 49.2125 193.094 49.2123 193.094 49.212C193.094 49.2119 193.094 49.2118 193.094 49.2117Z" fill="white"/>
<path d="M0 347.833C0 345.072 2.23858 342.833 5 342.833H87.9997C90.7611 342.833 92.9997 345.072 92.9997 347.833V446.166H0V347.833Z" fill="white"/>
<path d="M299 320.486C299 317.724 301.239 315.486 304 315.486H387C389.761 315.486 392 317.724 392 320.486V446.486H299V320.486Z" fill="white"/>
<rect x="31" y="363.499" width="20.6666" height="23.2499" rx="5" fill="#2B2B2B"/>
<rect x="330" y="367.499" width="20.6666" height="23.2499" rx="5" fill="#2B2B2B"/>
<rect x="330" y="334.486" width="20.6666" height="23.2499" rx="5" fill="#2B2B2B"/>
<rect x="31" y="397.083" width="20.6666" height="23.2499" rx="5" fill="#2B2B2B"/>
<rect x="330" y="401.083" width="20.6666" height="23.2499" rx="5" fill="#2B2B2B"/>
<rect x="62" y="363.499" width="20.6666" height="23.2499" rx="5" fill="#2B2B2B"/>
<rect x="361" y="367.499" width="20.6666" height="23.2499" rx="5" fill="#2B2B2B"/>
<rect x="361" y="334.486" width="20.6666" height="23.2499" rx="5" fill="#2B2B2B"/>
<rect x="62" y="397.083" width="20.6666" height="23.2499" rx="5" fill="#2B2B2B"/>
<rect x="361" y="401.083" width="20.6666" height="23.2499" rx="5" fill="#2B2B2B"/>
<path d="M93 285.833C93 283.071 95.2386 280.833 98 280.833H191.333C194.094 280.833 196.333 283.071 196.333 285.833V446.165H93V285.833Z" fill="white"/>
<path d="M196.333 354.029C196.333 352.289 197.238 350.674 198.721 349.765L247.999 319.583L297.278 349.765C298.761 350.674 299.666 352.289 299.666 354.029V446.165H196.333V354.029Z" fill="white"/>
<rect x="134.334" y="301.5" width="20.6666" height="23.2499" rx="5" fill="#2B2B2B"/>
<rect x="134.334" y="368.666" width="20.6666" height="23.2499" rx="5" fill="#2B2B2B"/>
<rect x="222.166" y="368.666" width="20.6666" height="23.2499" rx="5" fill="#2B2B2B"/>
<rect x="134.334" y="335.083" width="20.6666" height="23.2499" rx="5" fill="#2B2B2B"/>
<rect x="134.334" y="402.25" width="20.6666" height="23.2499" rx="5" fill="#2B2B2B"/>
<rect x="222.166" y="402.25" width="20.6666" height="23.2499" rx="5" fill="#2B2B2B"/>
<rect x="165.334" y="301.5" width="20.6666" height="23.2499" rx="5" fill="#2B2B2B"/>
<rect x="165.334" y="368.666" width="20.6666" height="23.2499" rx="5" fill="#2B2B2B"/>
<rect x="253.166" y="368.666" width="20.6666" height="23.2499" rx="5" fill="#2B2B2B"/>
<rect x="165.334" y="335.083" width="20.6666" height="23.2499" rx="5" fill="#2B2B2B"/>
<rect x="165.334" y="402.25" width="20.6666" height="23.2499" rx="5" fill="#2B2B2B"/>
<rect x="253.166" y="402.25" width="20.6666" height="23.2499" rx="5" fill="#2B2B2B"/>
<path fill-rule="evenodd" clip-rule="evenodd" d="M300.471 269.234L299.667 275.667L255.751 275.667L254.947 269.236C255.853 270.023 257.038 270.5 258.333 270.5H260.916C263.77 270.5 266.083 268.187 266.083 265.333C266.083 262.48 263.77 260.167 260.916 260.167H258.333C256.576 260.167 255.024 261.044 254.09 262.384L253.167 255L302.25 255L301.327 262.386C300.394 261.044 298.841 260.167 297.083 260.167H294.5C291.646 260.167 289.333 262.48 289.333 265.333C289.333 268.187 291.646 270.5 294.5 270.5H297.083C298.379 270.5 299.564 270.023 300.471 269.234ZM310.001 275.667V288.583L245.418 288.583V275.667L310.001 275.667ZM284.167 301.5H302.25V288.583L253.167 288.583L253.167 301.5H271.251V345.417H284.167V301.5ZM271.25 265.333C271.25 262.48 273.563 260.167 276.416 260.167H279C281.853 260.167 284.166 262.48 284.166 265.333C284.166 268.187 281.853 270.5 279 270.5H276.416C273.563 270.5 271.25 268.187 271.25 265.333Z" fill="white"/>
<path d="M3 461.486H410" stroke="white" stroke-width="5" stroke-dasharray="15 15"/>
</g>
<defs>
<linearGradient id="paint0_linear_139_4240" x1="332.5" y1="652" x2="271.5" y2="652" gradientUnits="userSpaceOnUse">
<stop stop-color="white"/>
<stop offset="1" stop-color="white" stop-opacity="0"/>
</linearGradient>
<linearGradient id="paint1_linear_139_4240" x1="38.5" y1="652" x2="99.5" y2="652" gradientUnits="userSpaceOnUse">
<stop stop-color="white"/>
<stop offset="1" stop-color="white" stop-opacity="0"/>
</linearGradient>
<clipPath id="clip0_139_4240">
<rect width="375" height="812" fill="white"/>
</clipPath>
<clipPath id="clip1_139_4240">
<rect width="375" height="812" fill="white"/>
</clipPath>
<clipPath id="clip2_139_4240">
<rect width="179" height="28" fill="white" transform="translate(98 683)"/>
</clipPath>
</defs>
</svg>
