<svg width="16" height="16" viewBox="0 0 16 16" fill="none" xmlns="http://www.w3.org/2000/svg">
<path d="M6.00008 6.66732H6.66675C6.84356 6.66732 7.01313 6.59708 7.13815 6.47206C7.26318 6.34703 7.33341 6.17746 7.33341 6.00065C7.33341 5.82384 7.26318 5.65427 7.13815 5.52925C7.01313 5.40422 6.84356 5.33398 6.66675 5.33398H6.00008C5.82327 5.33398 5.6537 5.40422 5.52868 5.52925C5.40365 5.65427 5.33341 5.82384 5.33341 6.00065C5.33341 6.17746 5.40365 6.34703 5.52868 6.47206C5.6537 6.59708 5.82327 6.66732 6.00008 6.66732ZM6.00008 8.00065C5.82327 8.00065 5.6537 8.07089 5.52868 8.19591C5.40365 8.32094 5.33341 8.49051 5.33341 8.66732C5.33341 8.84413 5.40365 9.0137 5.52868 9.13872C5.6537 9.26375 5.82327 9.33398 6.00008 9.33398H10.0001C10.1769 9.33398 10.3465 9.26375 10.4715 9.13872C10.5965 9.0137 10.6667 8.84413 10.6667 8.66732C10.6667 8.49051 10.5965 8.32094 10.4715 8.19591C10.3465 8.07089 10.1769 8.00065 10.0001 8.00065H6.00008ZM13.3334 5.96065C13.3265 5.89941 13.3131 5.83907 13.2934 5.78065V5.72065C13.2614 5.6521 13.2186 5.58909 13.1667 5.53398L9.16675 1.53398C9.11164 1.48213 9.04863 1.43937 8.98008 1.40732C8.96018 1.40449 8.93998 1.40449 8.92008 1.40732C8.85236 1.36848 8.77756 1.34355 8.70008 1.33398H4.66675C4.13631 1.33398 3.62761 1.5447 3.25253 1.91977C2.87746 2.29484 2.66675 2.80355 2.66675 3.33398V12.6673C2.66675 13.1978 2.87746 13.7065 3.25253 14.0815C3.62761 14.4566 4.13631 14.6673 4.66675 14.6673H11.3334C11.8638 14.6673 12.3726 14.4566 12.7476 14.0815C13.1227 13.7065 13.3334 13.1978 13.3334 12.6673V6.00065C13.3334 6.00065 13.3334 6.00065 13.3334 5.96065ZM9.33341 3.60732L11.0601 5.33398H10.0001C9.82327 5.33398 9.6537 5.26375 9.52868 5.13872C9.40365 5.0137 9.33341 4.84413 9.33341 4.66732V3.60732ZM12.0001 12.6673C12.0001 12.8441 11.9298 13.0137 11.8048 13.1387C11.6798 13.2637 11.5102 13.334 11.3334 13.334H4.66675C4.48994 13.334 4.32037 13.2637 4.19534 13.1387C4.07032 13.0137 4.00008 12.8441 4.00008 12.6673V3.33398C4.00008 3.15717 4.07032 2.9876 4.19534 2.86258C4.32037 2.73756 4.48994 2.66732 4.66675 2.66732H8.00008V4.66732C8.00008 5.19775 8.21079 5.70646 8.58587 6.08153C8.96094 6.4566 9.46965 6.66732 10.0001 6.66732H12.0001V12.6673ZM10.0001 10.6673H6.00008C5.82327 10.6673 5.6537 10.7376 5.52868 10.8626C5.40365 10.9876 5.33341 11.1572 5.33341 11.334C5.33341 11.5108 5.40365 11.6804 5.52868 11.8054C5.6537 11.9304 5.82327 12.0007 6.00008 12.0007H10.0001C10.1769 12.0007 10.3465 11.9304 10.4715 11.8054C10.5965 11.6804 10.6667 11.5108 10.6667 11.334C10.6667 11.1572 10.5965 10.9876 10.4715 10.8626C10.3465 10.7376 10.1769 10.6673 10.0001 10.6673Z" fill="#FFB84C"/>
</svg>
