<svg width="16" height="16" viewBox="0 0 16 16" fill="none" xmlns="http://www.w3.org/2000/svg">
<path d="M8.00065 1.33398C6.68211 1.33398 5.39318 1.72498 4.29685 2.45752C3.20052 3.19006 2.34604 4.23125 1.84146 5.44943C1.33687 6.6676 1.20485 8.00805 1.46209 9.30125C1.71932 10.5945 2.35426 11.7823 3.28661 12.7147C4.21896 13.647 5.40685 14.282 6.70005 14.5392C7.99326 14.7965 9.3337 14.6644 10.5519 14.1598C11.7701 13.6553 12.8112 12.8008 13.5438 11.7045C14.2763 10.6081 14.6673 9.31919 14.6673 8.00065C14.6673 7.12517 14.4949 6.25827 14.1599 5.44943C13.8248 4.64059 13.3338 3.90566 12.7147 3.28661C12.0956 2.66755 11.3607 2.17649 10.5519 1.84145C9.74304 1.50642 8.87613 1.33398 8.00065 1.33398ZM8.00065 13.334C6.94582 13.334 5.91467 13.0212 5.03761 12.4352C4.16055 11.8491 3.47696 11.0162 3.0733 10.0416C2.66963 9.06709 2.56401 7.99473 2.7698 6.96017C2.97559 5.9256 3.48354 4.97529 4.22942 4.22941C4.9753 3.48353 5.92561 2.97558 6.96017 2.7698C7.99474 2.56401 9.06709 2.66963 10.0416 3.07329C11.0162 3.47696 11.8491 4.16055 12.4352 5.03761C13.0212 5.91467 13.334 6.94582 13.334 8.00065C13.334 9.41514 12.7721 10.7717 11.7719 11.7719C10.7717 12.7721 9.41514 13.334 8.00065 13.334ZM10.0673 8.42065L8.66732 7.61398V4.66732C8.66732 4.49051 8.59708 4.32094 8.47206 4.19591C8.34703 4.07089 8.17747 4.00065 8.00065 4.00065C7.82384 4.00065 7.65427 4.07089 7.52925 4.19591C7.40423 4.32094 7.33399 4.49051 7.33399 4.66732V8.00065C7.33399 8.00065 7.33399 8.05398 7.33399 8.08065C7.33793 8.12659 7.34919 8.1716 7.36732 8.21398C7.38105 8.25354 7.39893 8.29153 7.42065 8.32732C7.4389 8.36521 7.46125 8.40098 7.48732 8.43398L7.59399 8.52065L7.65399 8.58065L9.38732 9.58065C9.48892 9.63824 9.60387 9.66812 9.72065 9.66732C9.86827 9.66835 10.012 9.62036 10.1294 9.53088C10.2468 9.44139 10.3312 9.31548 10.3694 9.17287C10.4075 9.03027 10.3972 8.87904 10.3401 8.7429C10.2831 8.60677 10.1824 8.49343 10.054 8.42065H10.0673Z" fill="#B3B3B3"/>
</svg>
