<svg width="375" height="319" viewBox="0 0 375 319" fill="none" xmlns="http://www.w3.org/2000/svg">
<path d="M295 168L375 168" stroke="#FFB84C" stroke-dasharray="5 5"/>
<path d="M0 168H81" stroke="#FFB84C" stroke-dasharray="5 5"/>
<circle cx="188" cy="168" r="107" fill="url(#paint0_linear_134_3906)"/>
<mask id="mask0_134_3906" style="mask-type:alpha" maskUnits="userSpaceOnUse" x="81" y="61" width="214" height="214">
<circle cx="188" cy="168" r="107" fill="#D9D9D9"/>
</mask>
<g mask="url(#mask0_134_3906)">
<path d="M88.5459 203.347H144.773V166.627H221.655V198.069L242.081 187.282V184.758H236.343V167.775H242.081L239.097 154.234H282.931L280.636 167.775H285.456V184.758H280.636V193.479H273.063V205.642L282.931 212.068V280H88.5459V203.347Z" fill="#FFB84C"/>
<mask id="path-6-inside-1_134_3906" fill="white">
<path fill-rule="evenodd" clip-rule="evenodd" d="M274.74 167.681L274.266 171.475H280.361V179.094H275.588V186.824H265.122V212.619H257.503V186.824H246.671L246.671 179.094H242.265V171.475H248.36L247.886 167.681C248.421 168.146 249.119 168.427 249.883 168.427H251.407C253.091 168.427 254.455 167.062 254.455 165.379C254.455 163.696 253.091 162.331 251.407 162.331H249.883C248.847 162.331 247.931 162.849 247.38 163.64L246.836 159.284H275.789L275.245 163.64C274.694 162.849 273.778 162.331 272.742 162.331H271.218C269.535 162.331 268.17 163.696 268.17 165.379C268.17 167.062 269.535 168.427 271.218 168.427H272.742C273.506 168.427 274.205 168.146 274.74 167.681ZM257.503 165.379C257.503 163.696 258.867 162.331 260.551 162.331H262.075C263.758 162.331 265.122 163.696 265.122 165.379C265.122 167.062 263.758 168.427 262.075 168.427H260.551C258.867 168.427 257.503 167.062 257.503 165.379Z"/>
</mask>
<path fill-rule="evenodd" clip-rule="evenodd" d="M274.74 167.681L274.266 171.475H280.361V179.094H275.588V186.824H265.122V212.619H257.503V186.824H246.671L246.671 179.094H242.265V171.475H248.36L247.886 167.681C248.421 168.146 249.119 168.427 249.883 168.427H251.407C253.091 168.427 254.455 167.062 254.455 165.379C254.455 163.696 253.091 162.331 251.407 162.331H249.883C248.847 162.331 247.931 162.849 247.38 163.64L246.836 159.284H275.789L275.245 163.64C274.694 162.849 273.778 162.331 272.742 162.331H271.218C269.535 162.331 268.17 163.696 268.17 165.379C268.17 167.062 269.535 168.427 271.218 168.427H272.742C273.506 168.427 274.205 168.146 274.74 167.681ZM257.503 165.379C257.503 163.696 258.867 162.331 260.551 162.331H262.075C263.758 162.331 265.122 163.696 265.122 165.379C265.122 167.062 263.758 168.427 262.075 168.427H260.551C258.867 168.427 257.503 167.062 257.503 165.379Z" fill="white"/>
<path d="M274.266 171.475L273.81 171.418L273.746 171.934H274.266V171.475ZM274.74 167.681L275.195 167.738L275.344 166.548L274.439 167.334L274.74 167.681ZM280.361 171.475H280.82V171.016H280.361V171.475ZM280.361 179.094V179.553H280.82V179.094H280.361ZM275.588 179.094V178.635H275.129V179.094H275.588ZM275.588 186.824V187.283H276.047V186.824H275.588ZM265.122 186.824V186.365H264.663V186.824H265.122ZM265.122 212.619V213.078H265.581V212.619H265.122ZM257.503 212.619H257.044V213.078H257.503V212.619ZM257.503 186.824H257.962V186.365H257.503V186.824ZM246.671 186.824H246.212V187.283H246.671V186.824ZM246.671 179.094H247.13V178.635H246.671V179.094ZM242.265 179.094H241.806V179.553H242.265V179.094ZM242.265 171.475V171.016H241.806V171.475H242.265ZM248.36 171.475V171.934H248.88L248.815 171.418L248.36 171.475ZM247.886 167.681L248.187 167.334L247.281 166.548L247.43 167.738L247.886 167.681ZM247.38 163.64L246.925 163.697L247.073 164.884L247.757 163.902L247.38 163.64ZM246.836 159.284V158.825H246.316L246.38 159.341L246.836 159.284ZM275.789 159.284L276.245 159.341L276.309 158.825H275.789V159.284ZM275.245 163.64L274.868 163.902L275.552 164.885L275.7 163.697L275.245 163.64ZM274.721 171.532L275.195 167.738L274.284 167.624L273.81 171.418L274.721 171.532ZM280.361 171.016H274.266V171.934H280.361V171.016ZM280.82 179.094V171.475H279.902V179.094H280.82ZM275.588 179.553H280.361V178.635H275.588V179.553ZM276.047 186.824V179.094H275.129V186.824H276.047ZM265.122 187.283H275.588V186.365H265.122V187.283ZM265.581 212.619V186.824H264.663V212.619H265.581ZM257.503 213.078H265.122V212.16H257.503V213.078ZM257.044 186.824V212.619H257.962V186.824H257.044ZM246.671 187.283H257.503V186.365H246.671V187.283ZM246.212 179.094L246.212 186.824H247.13L247.13 179.094H246.212ZM242.265 179.553H246.671V178.635H242.265V179.553ZM241.806 171.475V179.094H242.724V171.475H241.806ZM248.36 171.016H242.265V171.934H248.36V171.016ZM247.43 167.738L247.904 171.532L248.815 171.418L248.341 167.624L247.43 167.738ZM249.883 167.968C249.234 167.968 248.641 167.729 248.187 167.334L247.585 168.027C248.2 168.562 249.004 168.886 249.883 168.886V167.968ZM251.407 167.968H249.883V168.886H251.407V167.968ZM253.996 165.379C253.996 166.809 252.837 167.968 251.407 167.968V168.886C253.344 168.886 254.914 167.316 254.914 165.379H253.996ZM251.407 162.79C252.837 162.79 253.996 163.95 253.996 165.379H254.914C254.914 163.443 253.344 161.872 251.407 161.872V162.79ZM249.883 162.79H251.407V161.872H249.883V162.79ZM247.757 163.902C248.226 163.229 249.003 162.79 249.883 162.79V161.872C248.69 161.872 247.636 162.469 247.004 163.378L247.757 163.902ZM246.38 159.341L246.925 163.697L247.836 163.583L247.291 159.227L246.38 159.341ZM275.789 158.825H246.836V159.743H275.789V158.825ZM275.7 163.697L276.245 159.341L275.334 159.227L274.789 163.583L275.7 163.697ZM272.742 162.79C273.622 162.79 274.4 163.229 274.868 163.902L275.622 163.378C274.989 162.469 273.935 161.872 272.742 161.872V162.79ZM271.218 162.79H272.742V161.872H271.218V162.79ZM268.629 165.379C268.629 163.95 269.788 162.79 271.218 162.79V161.872C269.281 161.872 267.711 163.443 267.711 165.379H268.629ZM271.218 167.968C269.788 167.968 268.629 166.809 268.629 165.379H267.711C267.711 167.316 269.281 168.886 271.218 168.886V167.968ZM272.742 167.968H271.218V168.886H272.742V167.968ZM274.439 167.334C273.984 167.729 273.391 167.968 272.742 167.968V168.886C273.621 168.886 274.426 168.562 275.041 168.027L274.439 167.334ZM260.551 161.872C258.614 161.872 257.044 163.443 257.044 165.379H257.962C257.962 163.95 259.121 162.79 260.551 162.79V161.872ZM262.075 161.872H260.551V162.79H262.075V161.872ZM265.581 165.379C265.581 163.443 264.011 161.872 262.075 161.872V162.79C263.504 162.79 264.663 163.95 264.663 165.379H265.581ZM262.075 168.886C264.011 168.886 265.581 167.316 265.581 165.379H264.663C264.663 166.809 263.504 167.968 262.075 167.968V168.886ZM260.551 168.886H262.075V167.968H260.551V168.886ZM257.044 165.379C257.044 167.316 258.614 168.886 260.551 168.886V167.968C259.121 167.968 257.962 166.809 257.962 165.379H257.044Z" fill="#2B2B2B" mask="url(#path-6-inside-1_134_3906)"/>
<path d="M97.7256 211.38H153.494C154.635 211.38 155.559 212.305 155.559 213.445V271.968H97.7256V211.38Z" fill="white" stroke="#2B2B2B" stroke-width="0.458997"/>
<rect x="115.782" y="223.286" width="12.1909" height="13.7148" rx="2.29499" fill="#2B2B2B"/>
<rect x="115.782" y="243.096" width="12.1909" height="13.7148" rx="2.29499" fill="#2B2B2B"/>
<rect x="134.069" y="223.286" width="12.1909" height="13.7148" rx="2.29499" fill="#2B2B2B"/>
<rect x="134.069" y="243.096" width="12.1909" height="13.7148" rx="2.29499" fill="#2B2B2B"/>
<path d="M273.98 218.938V271.967H211.098V218.938C211.098 217.251 211.989 215.689 213.442 214.831L242.539 197.647L271.636 214.831C273.089 215.689 273.98 217.251 273.98 218.938Z" fill="white" stroke="#2B2B2B" stroke-width="0.458997"/>
<rect x="228.549" y="226.334" width="12.1909" height="13.7148" rx="2.29499" fill="#2B2B2B"/>
<rect x="228.549" y="246.144" width="12.1909" height="13.7148" rx="2.29499" fill="#2B2B2B"/>
<rect x="246.835" y="226.334" width="12.1909" height="13.7148" rx="2.29499" fill="#2B2B2B"/>
<rect x="246.835" y="246.144" width="12.1909" height="13.7148" rx="2.29499" fill="#2B2B2B"/>
<path d="M152.585 174.752H213.081V271.82H152.585V174.752Z" fill="white" stroke="#2B2B2B" stroke-width="0.458997"/>
<rect x="176.737" y="186.713" width="12.1909" height="13.7148" rx="2.29499" fill="#2B2B2B"/>
<rect x="176.737" y="226.334" width="12.1909" height="13.7148" rx="2.29499" fill="#2B2B2B"/>
<rect x="176.737" y="206.523" width="12.1909" height="13.7148" rx="2.29499" fill="#2B2B2B"/>
<rect x="176.737" y="246.144" width="12.1909" height="13.7148" rx="2.29499" fill="#2B2B2B"/>
<rect x="195.023" y="186.713" width="12.1909" height="13.7148" rx="2.29499" fill="#2B2B2B"/>
<rect x="195.023" y="226.334" width="12.1909" height="13.7148" rx="2.29499" fill="#2B2B2B"/>
<rect x="195.023" y="206.523" width="12.1909" height="13.7148" rx="2.29499" fill="#2B2B2B"/>
<rect x="195.023" y="246.144" width="12.1909" height="13.7148" rx="2.29499" fill="#2B2B2B"/>
<circle cx="164.969" cy="146.49" r="3.67198" fill="#FFB84D"/>
<path fill-rule="evenodd" clip-rule="evenodd" d="M127.661 118.279C125.858 118.33 124.042 118.816 122.37 119.781C116.998 122.883 115.158 129.752 118.259 135.124C121.361 140.496 128.23 142.337 133.602 139.235C134.813 138.536 135.844 137.646 136.68 136.624C132.689 136.736 128.764 134.712 126.628 131.011C124.225 126.85 124.788 121.79 127.661 118.279Z" fill="#FFB84C"/>
<circle cx="140.872" cy="127.442" r="2.52449" fill="white"/>
<circle cx="123.2" cy="151.54" r="2.29499" fill="white"/>
<circle cx="238.408" cy="135.016" r="2.29499" fill="white"/>
<circle cx="147.068" cy="142.359" r="3.67198" fill="white"/>
<circle cx="220.508" cy="153.835" r="3.67198" fill="#FFB84C"/>
</g>
<circle cx="188" cy="168" r="104.5" stroke="#FFB84C" stroke-width="5"/>
<path fill-rule="evenodd" clip-rule="evenodd" d="M161 94C161 97.3137 158.314 100 155 100C158.314 100 161 102.686 161 106C161 102.686 163.686 100 167 100C163.686 100 161 97.3137 161 94Z" fill="white"/>
<path fill-rule="evenodd" clip-rule="evenodd" d="M227.924 114.891C226.11 117.664 226.887 121.383 229.66 123.197C226.887 121.383 223.169 122.16 221.355 124.933C223.169 122.16 222.392 118.441 219.619 116.627C222.392 118.441 226.11 117.664 227.924 114.891Z" fill="white"/>
<path fill-rule="evenodd" clip-rule="evenodd" d="M109 162C109 165.314 106.314 168 103 168C106.314 168 109 170.686 109 174C109 170.686 111.686 168 115 168C111.686 168 109 165.314 109 162Z" fill="#FFB84C"/>
<path fill-rule="evenodd" clip-rule="evenodd" d="M174 109C174 110.657 172.657 112 171 112C172.657 112 174 113.343 174 115C174 113.343 175.343 112 177 112C175.343 112 174 110.657 174 109Z" fill="white"/>
<path fill-rule="evenodd" clip-rule="evenodd" d="M208.833 120.326C207.926 121.712 208.315 123.572 209.701 124.479C208.315 123.572 206.456 123.96 205.548 125.347C206.456 123.96 206.067 122.101 204.68 121.194C206.067 122.101 207.926 121.712 208.833 120.326Z" fill="white"/>
<path fill-rule="evenodd" clip-rule="evenodd" d="M253 131C253 132.657 251.657 134 250 134C251.657 134 253 135.343 253 137C253 135.343 254.343 134 256 134C254.343 134 253 132.657 253 131Z" fill="#FFB84C"/>
<path fill-rule="evenodd" clip-rule="evenodd" d="M190 114C190 115.657 188.657 117 187 117C188.657 117 190 118.343 190 120C190 118.343 191.343 117 193 117C191.343 117 190 115.657 190 114Z" fill="#FFB84C"/>
<path fill-rule="evenodd" clip-rule="evenodd" d="M218 82C218 83.6569 216.657 85 215 85C216.657 85 218 86.3431 218 88C218 86.3431 219.343 85 221 85C219.343 85 218 83.6569 218 82Z" fill="white"/>
<path fill-rule="evenodd" clip-rule="evenodd" d="M228 85C228 86.6569 226.657 88 225 88C226.657 88 228 89.3431 228 91C228 89.3431 229.343 88 231 88C229.343 88 228 86.6569 228 85Z" fill="white"/>
<path fill-rule="evenodd" clip-rule="evenodd" d="M186.795 73.6427C185.888 75.0292 186.277 76.8885 187.663 77.7956C186.277 76.8885 184.417 77.2771 183.51 78.6636C184.417 77.2771 184.029 75.4178 182.642 74.5107C184.029 75.4178 185.888 75.0292 186.795 73.6427Z" fill="white"/>
<defs>
<linearGradient id="paint0_linear_134_3906" x1="188" y1="61" x2="188" y2="275" gradientUnits="userSpaceOnUse">
<stop stop-color="#FFB84C"/>
<stop offset="1" stop-color="white" stop-opacity="0"/>
</linearGradient>
</defs>
</svg>
