<svg width="16" height="16" viewBox="0 0 16 16" fill="none" xmlns="http://www.w3.org/2000/svg">
<path d="M4.99993 4.00066C4.80215 4.00066 4.60881 4.05931 4.44436 4.16919C4.27991 4.27907 4.15174 4.43525 4.07605 4.61798C4.00036 4.8007 3.98056 5.00177 4.01914 5.19575C4.05773 5.38973 4.15297 5.56792 4.29282 5.70777C4.43268 5.84762 4.61086 5.94286 4.80484 5.98145C4.99882 6.02003 5.19989 6.00023 5.38261 5.92454C5.56534 5.84885 5.72152 5.72068 5.8314 5.55623C5.94128 5.39178 5.99993 5.19844 5.99993 5.00066C5.99993 4.73545 5.89457 4.48109 5.70704 4.29356C5.5195 4.10602 5.26515 4.00066 4.99993 4.00066ZM14.0799 7.14066L8.47326 1.52733C8.41097 1.46554 8.33709 1.41666 8.25587 1.38348C8.17464 1.3503 8.08767 1.33349 7.99993 1.334H1.99993C1.82312 1.334 1.65355 1.40423 1.52853 1.52926C1.4035 1.65428 1.33326 1.82385 1.33326 2.00066V8.00066C1.33276 8.0884 1.34957 8.17538 1.38275 8.2566C1.41593 8.33783 1.46481 8.4117 1.5266 8.474L7.13993 14.0807C7.51493 14.4552 8.02326 14.6656 8.55326 14.6656C9.08327 14.6656 9.5916 14.4552 9.9666 14.0807L14.0799 10.0007C14.4545 9.62566 14.6648 9.11733 14.6648 8.58733C14.6648 8.05733 14.4545 7.549 14.0799 7.174V7.14066ZM13.1399 9.02066L9.01993 13.134C8.89502 13.2582 8.72605 13.3279 8.54993 13.3279C8.37381 13.3279 8.20484 13.2582 8.07993 13.134L2.6666 7.72733V2.66733H7.7266L13.1399 8.08066C13.2017 8.14296 13.2506 8.21683 13.2838 8.29806C13.317 8.37928 13.3338 8.46626 13.3333 8.554C13.3325 8.72889 13.2631 8.89649 13.1399 9.02066Z" fill="#4B4B4B"/>
</svg>
