<svg width="14" height="15" viewBox="0 0 14 15" fill="none" xmlns="http://www.w3.org/2000/svg">
<path d="M12.4715 4.2036C12.4516 4.13205 12.4171 4.06501 12.3701 4.00634C12.323 3.94767 12.2643 3.89855 12.1974 3.86181L9.16404 2.18089C9.09781 2.14361 9.02457 2.11926 8.94852 2.10922C8.87247 2.09918 8.79511 2.10366 8.72086 2.1224C8.64662 2.14114 8.57696 2.17377 8.51587 2.21842C8.45478 2.26307 8.40347 2.31886 8.36487 2.3826L6.99987 4.65745L5.63487 2.3826C5.59628 2.31886 5.54496 2.26307 5.48388 2.21842C5.42279 2.17377 5.35312 2.14114 5.27888 2.1224C5.20464 2.10366 5.12727 2.09918 5.05122 2.10922C4.97517 2.11926 4.90194 2.14361 4.83571 2.18089L1.80237 3.86181C1.73542 3.89855 1.67672 3.94767 1.62966 4.00634C1.5826 4.06501 1.54812 4.13205 1.5282 4.2036C1.4896 4.34561 1.51054 4.4965 1.58654 4.62383L3.91987 8.45073C3.65956 8.9088 3.51565 9.41949 3.49987 9.94114C3.49848 10.4501 3.6174 10.9526 3.84767 11.411C4.07793 11.8693 4.41352 12.2715 4.82915 12.5871C5.24477 12.9028 5.72957 13.1236 6.247 13.2331C6.76444 13.3426 7.30099 13.3378 7.81621 13.2191C8.33143 13.1004 8.81187 12.8709 9.22131 12.5478C9.63074 12.2248 9.95848 11.8168 10.1798 11.3544C10.4012 10.892 10.5103 10.3874 10.4991 9.87856C10.4878 9.36976 10.3565 8.87005 10.1149 8.41711L12.3899 4.62943C12.4322 4.56721 12.4612 4.49751 12.4753 4.4244C12.4893 4.35129 12.488 4.27623 12.4715 4.2036ZM2.91654 4.55099L4.93487 3.43038L6.81321 6.5793C6.01253 6.62682 5.25383 6.9397 4.66654 7.46459L2.91654 4.55099ZM6.99987 12.1824C6.38103 12.1824 5.78754 11.9462 5.34996 11.5259C4.91237 11.1056 4.66654 10.5356 4.66654 9.94114C4.66654 9.34673 4.91237 8.77667 5.34996 8.35636C5.78754 7.93604 6.38103 7.69992 6.99987 7.69992C7.61871 7.69992 8.2122 7.93604 8.64979 8.35636C9.08737 8.77667 9.33321 9.34673 9.33321 9.94114C9.33321 10.5356 9.08737 11.1056 8.64979 11.5259C8.2122 11.9462 7.61871 12.1824 6.99987 12.1824ZM9.33321 7.44778C9.0165 7.16993 8.64851 6.95139 8.24821 6.80342L7.67654 5.77806L9.08821 3.43038L11.1065 4.55099L9.33321 7.44778Z" fill="#FFB84C"/>
</svg>
