<svg width="16" height="16" viewBox="0 0 16 16" fill="none" xmlns="http://www.w3.org/2000/svg">
<path d="M8.00008 1.33398C6.58559 1.33398 5.22904 1.89589 4.22885 2.89608C3.22865 3.89628 2.66675 5.25283 2.66675 6.66732C2.66675 10.2673 7.36675 14.334 7.56675 14.5073C7.6875 14.6106 7.84118 14.6674 8.00008 14.6674C8.15898 14.6674 8.31266 14.6106 8.43341 14.5073C8.66675 14.334 13.3334 10.2673 13.3334 6.66732C13.3334 5.25283 12.7715 3.89628 11.7713 2.89608C10.7711 1.89589 9.41457 1.33398 8.00008 1.33398ZM8.00008 13.1007C6.58008 11.7673 4.00008 8.89398 4.00008 6.66732C4.00008 5.60645 4.42151 4.58904 5.17165 3.83889C5.9218 3.08875 6.93922 2.66732 8.00008 2.66732C9.06095 2.66732 10.0784 3.08875 10.8285 3.83889C11.5787 4.58904 12.0001 5.60645 12.0001 6.66732C12.0001 8.89398 9.42008 11.774 8.00008 13.1007ZM8.00008 4.00065C7.47266 4.00065 6.95709 4.15705 6.51856 4.45007C6.08003 4.74308 5.73824 5.15956 5.5364 5.64683C5.33457 6.1341 5.28176 6.67028 5.38465 7.18756C5.48755 7.70484 5.74152 8.18 6.11446 8.55294C6.4874 8.92588 6.96256 9.17985 7.47984 9.28275C7.99712 9.38564 8.5333 9.33283 9.02057 9.131C9.50784 8.92916 9.92432 8.58737 10.2173 8.14884C10.5104 7.71031 10.6667 7.19473 10.6667 6.66732C10.6667 5.96007 10.3858 5.2818 9.8857 4.7817C9.3856 4.2816 8.70732 4.00065 8.00008 4.00065ZM8.00008 8.00065C7.73637 8.00065 7.47859 7.92245 7.25932 7.77594C7.04006 7.62944 6.86916 7.4212 6.76824 7.17756C6.66733 6.93393 6.64092 6.66584 6.69237 6.4072C6.74381 6.14856 6.8708 5.91098 7.05727 5.72451C7.24374 5.53804 7.48132 5.41105 7.73996 5.3596C7.9986 5.30816 8.26669 5.33456 8.51033 5.43548C8.75396 5.5364 8.9622 5.70729 9.10871 5.92656C9.25522 6.14582 9.33341 6.40361 9.33341 6.66732C9.33341 7.02094 9.19294 7.36008 8.94289 7.61013C8.69284 7.86018 8.3537 8.00065 8.00008 8.00065Z" fill="#4B4B4B"/>
</svg>
