<svg width="24" height="24" viewBox="0 0 24 24" fill="none" xmlns="http://www.w3.org/2000/svg">
<path d="M6.99913 11.0002H14.5891L11.2891 7.71019C11.1008 7.52188 10.995 7.26649 10.995 7.00019C10.995 6.73388 11.1008 6.47849 11.2891 6.29019C11.4774 6.10188 11.7328 5.99609 11.9991 5.99609C12.2654 5.99609 12.5208 6.10188 12.7091 6.29019L17.7091 11.2902C17.8002 11.3853 17.8715 11.4974 17.9191 11.6202C18.0191 11.8636 18.0191 12.1367 17.9191 12.3802C17.8715 12.5029 17.8002 12.6151 17.7091 12.7102L12.7091 17.7102C12.6162 17.8039 12.5056 17.8783 12.3837 17.9291C12.2618 17.9798 12.1311 18.006 11.9991 18.006C11.8671 18.006 11.7364 17.9798 11.6146 17.9291C11.4927 17.8783 11.3821 17.8039 11.2891 17.7102C11.1954 17.6172 11.121 17.5066 11.0702 17.3848C11.0195 17.2629 10.9933 17.1322 10.9933 17.0002C10.9933 16.8682 11.0195 16.7375 11.0702 16.6156C11.121 16.4937 11.1954 16.3831 11.2891 16.2902L14.5891 13.0002H6.99913C6.73391 13.0002 6.47956 12.8948 6.29202 12.7073C6.10448 12.5198 5.99913 12.2654 5.99913 12.0002C5.99913 11.735 6.10448 11.4806 6.29202 11.2931C6.47956 11.1055 6.73391 11.0002 6.99913 11.0002Z" fill="#FFB84C"/>
</svg>
