<svg width="16" height="16" viewBox="0 0 16 16" fill="none" xmlns="http://www.w3.org/2000/svg">
<path d="M9.99992 7.33398H8.66659V4.66732C8.66659 4.49051 8.59635 4.32094 8.47133 4.19591C8.3463 4.07089 8.17673 4.00065 7.99992 4.00065C7.82311 4.00065 7.65354 4.07089 7.52852 4.19591C7.40349 4.32094 7.33326 4.49051 7.33326 4.66732V8.00065C7.33326 8.17746 7.40349 8.34703 7.52852 8.47206C7.65354 8.59708 7.82311 8.66732 7.99992 8.66732H9.99992C10.1767 8.66732 10.3463 8.59708 10.4713 8.47206C10.5964 8.34703 10.6666 8.17746 10.6666 8.00065C10.6666 7.82384 10.5964 7.65427 10.4713 7.52925C10.3463 7.40422 10.1767 7.33398 9.99992 7.33398ZM7.99992 1.33398C6.68138 1.33398 5.39245 1.72498 4.29612 2.45752C3.19979 3.19006 2.34531 4.23125 1.84072 5.44943C1.33614 6.6676 1.20412 8.00805 1.46135 9.30125C1.71859 10.5945 2.35353 11.7823 3.28588 12.7147C4.21823 13.647 5.40611 14.282 6.69932 14.5392C7.99253 14.7965 9.33297 14.6644 10.5511 14.1598C11.7693 13.6553 12.8105 12.8008 13.5431 11.7045C14.2756 10.6081 14.6666 9.31919 14.6666 8.00065C14.6666 7.12517 14.4942 6.25827 14.1591 5.44943C13.8241 4.64059 13.333 3.90566 12.714 3.28661C12.0949 2.66755 11.36 2.17649 10.5511 1.84145C9.74231 1.50642 8.8754 1.33398 7.99992 1.33398ZM7.99992 13.334C6.94509 13.334 5.91394 13.0212 5.03688 12.4352C4.15982 11.8491 3.47623 11.0162 3.07256 10.0416C2.6689 9.06709 2.56328 7.99474 2.76907 6.96017C2.97485 5.9256 3.48281 4.9753 4.22869 4.22941C4.97457 3.48354 5.92487 2.97558 6.95944 2.7698C7.99401 2.56401 9.06636 2.66963 10.0409 3.07329C11.0154 3.47696 11.8484 4.16055 12.4344 5.03761C13.0205 5.91467 13.3333 6.94582 13.3333 8.00065C13.3333 9.41514 12.7714 10.7717 11.7712 11.7719C10.771 12.7721 9.41441 13.334 7.99992 13.334Z" fill="#4B4B4B"/>
</svg>
