<svg width="375" height="319" viewBox="0 0 375 319" fill="none" xmlns="http://www.w3.org/2000/svg">
<circle cx="188" cy="168" r="107" fill="url(#paint0_linear_134_3922)"/>
<path fill-rule="evenodd" clip-rule="evenodd" d="M161 94C161 97.3137 158.314 100 155 100C158.314 100 161 102.686 161 106C161 102.686 163.686 100 167 100C163.686 100 161 97.3137 161 94Z" fill="white"/>
<path fill-rule="evenodd" clip-rule="evenodd" d="M227.924 114.891C226.11 117.664 226.887 121.383 229.66 123.197C226.887 121.383 223.169 122.16 221.355 124.933C223.169 122.16 222.392 118.441 219.619 116.627C222.392 118.441 226.11 117.664 227.924 114.891Z" fill="white"/>
<path fill-rule="evenodd" clip-rule="evenodd" d="M109 162C109 165.314 106.314 168 103 168C106.314 168 109 170.686 109 174C109 170.686 111.686 168 115 168C111.686 168 109 165.314 109 162Z" fill="#FFB84C"/>
<path fill-rule="evenodd" clip-rule="evenodd" d="M174 109C174 110.657 172.657 112 171 112C172.657 112 174 113.343 174 115C174 113.343 175.343 112 177 112C175.343 112 174 110.657 174 109Z" fill="white"/>
<path fill-rule="evenodd" clip-rule="evenodd" d="M185 216C185 214.343 183.657 213 182 213C183.657 213 185 211.657 185 210C185 211.657 186.343 213 188 213C186.343 213 185 214.343 185 216Z" fill="#FFB84C"/>
<path fill-rule="evenodd" clip-rule="evenodd" d="M211.692 140.044C210.116 140.557 209.254 142.249 209.766 143.825C209.254 142.249 207.561 141.387 205.986 141.899C207.561 141.387 208.423 139.694 207.911 138.119C208.423 139.694 210.116 140.557 211.692 140.044Z" fill="white"/>
<path fill-rule="evenodd" clip-rule="evenodd" d="M167.413 212.674C167.575 211.025 169.042 209.819 170.691 209.981C169.042 209.819 167.837 208.351 167.999 206.702C167.837 208.351 166.369 209.557 164.72 209.395C166.369 209.557 167.575 211.025 167.413 212.674Z" fill="#FFB84C"/>
<path fill-rule="evenodd" clip-rule="evenodd" d="M208.523 232.029C209.561 230.738 209.356 228.85 208.064 227.811C209.356 228.85 211.244 228.644 212.282 227.353C211.244 228.644 211.449 230.533 212.74 231.571C211.449 230.533 209.561 230.738 208.523 232.029Z" fill="#FFB84C"/>
<path fill-rule="evenodd" clip-rule="evenodd" d="M200.978 123.314C199.94 124.605 198.051 124.81 196.76 123.772C198.051 124.81 198.256 126.699 197.218 127.99C198.256 126.699 200.145 126.493 201.436 127.532C200.145 126.493 199.94 124.605 200.978 123.314Z" fill="#FFB84C"/>
<path fill-rule="evenodd" clip-rule="evenodd" d="M148.772 205.804C149.81 204.512 149.605 202.624 148.313 201.586C149.605 202.624 151.493 202.419 152.531 201.127C151.493 202.419 151.698 204.307 152.989 205.345C151.698 204.307 149.81 204.512 148.772 205.804Z" fill="#FFB84C"/>
<path fill-rule="evenodd" clip-rule="evenodd" d="M242.85 115.919C241.812 117.21 239.923 117.415 238.632 116.377C239.923 117.415 240.128 119.304 239.09 120.595C240.128 119.304 242.017 119.098 243.308 120.137C242.017 119.098 241.812 117.21 242.85 115.919Z" fill="white"/>
<path fill-rule="evenodd" clip-rule="evenodd" d="M150.542 248.287C151.58 246.996 151.375 245.107 150.084 244.069C151.375 245.107 153.264 244.902 154.302 243.611C153.264 244.902 153.469 246.791 154.76 247.829C153.469 246.791 151.58 246.996 150.542 248.287Z" fill="#FFB84C"/>
<path fill-rule="evenodd" clip-rule="evenodd" d="M160.216 252.215C161.254 250.923 161.049 249.035 159.758 247.997C161.049 249.035 162.937 248.83 163.976 247.539C162.937 248.83 163.143 250.718 164.434 251.756C163.143 250.718 161.254 250.923 160.216 252.215Z" fill="#FFB84C"/>
<path fill-rule="evenodd" clip-rule="evenodd" d="M223.767 89.853C222.191 90.3652 221.329 92.0578 221.841 93.6335C221.329 92.0578 219.637 91.1956 218.061 91.7078C219.637 91.1956 220.499 89.503 219.986 87.9273C220.499 89.503 222.191 90.3652 223.767 89.853Z" fill="white"/>
<path fill-rule="evenodd" clip-rule="evenodd" d="M205.633 76.853C204.057 77.3652 203.195 79.0578 203.707 80.6335C203.195 79.0578 201.503 78.1956 199.927 78.7078C201.503 78.1956 202.365 76.503 201.853 74.9273C202.365 76.503 204.057 77.3652 205.633 76.853Z" fill="white"/>
<path fill-rule="evenodd" clip-rule="evenodd" d="M120.986 235.248C121.148 233.599 122.616 232.394 124.265 232.555C122.616 232.394 121.41 230.926 121.572 229.277C121.41 230.926 119.942 232.131 118.293 231.969C119.942 232.131 121.148 233.599 120.986 235.248Z" fill="#FFB84C"/>
<mask id="mask0_134_3922" style="mask-type:alpha" maskUnits="userSpaceOnUse" x="81" y="61" width="214" height="214">
<circle cx="188" cy="168" r="107" fill="#D9D9D9"/>
</mask>
<g mask="url(#mask0_134_3922)">
<path d="M158.441 199.493L188.082 284.814L219.064 293.898L216.682 290.426L267.91 285.577L288.326 253.755L260.34 163.827L230.624 197.043L158.441 199.493Z" fill="#FFB84C"/>
<path d="M169.01 205.066L195.358 280.907L222.898 288.982L220.78 285.896L266.316 281.585L280.736 253.926L256.422 177.071L234.963 204.301L169.01 205.066Z" fill="white" stroke="#4B4B4B"/>
<path d="M169.338 205.31L190.589 211.241L220.832 286.439" stroke="#4B4B4B"/>
<path d="M234.964 204.301L266.567 281.014" stroke="#4B4B4B"/>
</g>
<circle cx="188" cy="168" r="104.5" stroke="#FFB84C" stroke-width="5"/>
<path fill-rule="evenodd" clip-rule="evenodd" d="M114.419 156.254L118.134 174.32C113.15 175.345 111.224 188.078 113.017 196.8L129.837 193.341L136.498 225.736L144.539 236.42L124.427 138.612L106.361 142.327C106.586 145.527 108.513 152.793 114.419 156.254ZM140.584 150.873L144.299 168.94C149.283 167.915 156.078 178.855 157.871 187.576L141.051 191.035L147.712 223.43L144.54 236.419L124.428 138.612L142.494 134.897C143.55 137.926 144.645 145.363 140.584 150.873Z" fill="#FFB84C"/>
<path d="M139.435 139.584L111.575 145.313C113.008 152.277 117.087 154.463 118.947 154.686L123.244 175.581C116.737 179.242 116.365 188.61 116.992 192.837L133.36 189.471L140.592 224.644L143.551 230.206L144.075 223.928L136.842 188.755L152.513 185.533C150.402 176.675 143.729 172.82 140.656 172L136.36 151.105C140.187 147.124 140.005 141.765 139.435 139.584Z" fill="white" stroke="#2B2B2B"/>
<path d="M135.526 173.319L131.471 151.993L133.001 151.596L137.555 172.957L135.526 173.319Z" fill="#2B2B2B"/>
<path d="M131.074 150.462C133.787 149.405 136.38 144.028 136.676 141.824C137.659 143.741 135.734 148.275 133.743 149.686L131.074 150.462Z" fill="#2B2B2B"/>
<path d="M117.87 189.653L149.378 183.287" stroke="#2B2B2B" stroke-width="2"/>
<circle cx="139" cy="108" r="2" fill="white"/>
<circle cx="109" cy="130" r="5" fill="white"/>
<circle cx="268" cy="137" r="2" fill="white"/>
<path fill-rule="evenodd" clip-rule="evenodd" d="M203.7 161.215C196.838 169.976 188.055 174.7 179.616 172.999C164.858 170.024 156.742 148.521 161.489 124.97C166.237 101.42 182.049 84.7397 196.807 87.7146C205.246 89.4156 211.513 97.1738 214.445 107.909C221.307 99.1482 230.09 94.4235 238.529 96.1245C253.287 99.0994 261.403 120.603 256.656 144.153C251.909 167.704 236.096 184.384 221.338 181.409C212.899 179.708 206.633 171.95 203.7 161.215Z" fill="#FFB84C"/>
<path d="M210.994 134.949C208.963 145.023 204.57 153.604 199.134 159.337C193.693 165.077 187.268 167.911 181.136 166.675C175.004 165.439 170.179 160.337 167.386 152.938C164.596 145.546 163.87 135.933 165.901 125.859C167.931 115.786 172.325 107.205 177.76 101.471C183.201 95.7313 189.626 92.8976 195.758 94.1337C201.89 95.3697 206.716 100.471 209.508 107.871C212.298 115.262 213.024 124.875 210.994 134.949Z" fill="white" stroke="#2B2B2B"/>
<ellipse cx="177.163" cy="141.444" rx="11.7865" ry="18.5" transform="rotate(5.5147 177.163 141.444)" fill="#2B2B2B"/>
<circle cx="181.779" cy="130.59" r="2" transform="rotate(11.3965 181.779 130.59)" fill="white"/>
<path d="M251.185 143.05C249.154 153.124 244.761 161.705 239.325 167.439C233.884 173.179 227.459 176.012 221.327 174.776C215.195 173.54 210.37 168.439 207.577 161.039C204.787 153.648 204.061 144.035 206.092 133.961C208.123 123.887 212.516 115.306 217.952 109.573C223.393 103.833 229.818 100.999 235.95 102.235C242.082 103.471 246.907 108.573 249.7 115.972C252.489 123.364 253.216 132.977 251.185 143.05Z" fill="white" stroke="#2B2B2B"/>
<ellipse cx="217.355" cy="149.546" rx="11.7865" ry="18.5" transform="rotate(5.5147 217.355 149.546)" fill="#2B2B2B"/>
<circle cx="221.971" cy="138.692" r="2" transform="rotate(11.3965 221.971 138.692)" fill="white"/>
<path d="M295 168L375 168" stroke="#FFB84C" stroke-dasharray="5 5"/>
<path d="M0 168H81" stroke="#FFB84C" stroke-dasharray="5 5"/>
<defs>
<linearGradient id="paint0_linear_134_3922" x1="188" y1="61" x2="188" y2="275" gradientUnits="userSpaceOnUse">
<stop stop-color="#FFB84C"/>
<stop offset="1" stop-color="white" stop-opacity="0"/>
</linearGradient>
</defs>
</svg>
