<svg width="20" height="20" viewBox="0 0 20 20" fill="none" xmlns="http://www.w3.org/2000/svg">
<path d="M9.99935 9.16602C9.77834 9.16602 9.56638 9.25381 9.4101 9.41009C9.25382 9.56637 9.16602 9.77834 9.16602 9.99935V13.3327C9.16602 13.5537 9.25382 13.7657 9.4101 13.9219C9.56638 14.0782 9.77834 14.166 9.99935 14.166C10.2204 14.166 10.4323 14.0782 10.5886 13.9219C10.7449 13.7657 10.8327 13.5537 10.8327 13.3327V9.99935C10.8327 9.77834 10.7449 9.56637 10.5886 9.41009C10.4323 9.25381 10.2204 9.16602 9.99935 9.16602ZM10.316 5.89935C10.1131 5.816 9.88557 5.816 9.68269 5.89935C9.58039 5.93901 9.48694 5.99848 9.40769 6.07435C9.33408 6.15535 9.27489 6.24836 9.23269 6.34935C9.18603 6.44825 9.1632 6.5567 9.16602 6.66602C9.16539 6.77569 9.18641 6.88441 9.22788 6.98594C9.26935 7.08747 9.33045 7.17982 9.40769 7.25768C9.48869 7.33129 9.5817 7.39048 9.68269 7.43268C9.80893 7.48455 9.94599 7.50461 10.0818 7.49111C10.2176 7.47761 10.348 7.43095 10.4616 7.35524C10.5752 7.27953 10.6684 7.17709 10.7331 7.05691C10.7978 6.93673 10.832 6.8025 10.8327 6.66602C10.8296 6.44538 10.7433 6.23404 10.591 6.07435C10.5118 5.99848 10.4183 5.93901 10.316 5.89935ZM9.99935 1.66602C8.35118 1.66602 6.74001 2.15476 5.3696 3.07044C3.99919 3.98611 2.93109 5.2876 2.30036 6.81032C1.66963 8.33304 1.5046 10.0086 1.82614 11.6251C2.14769 13.2416 2.94136 14.7265 4.1068 15.8919C5.27223 17.0573 6.75709 17.851 8.3736 18.1726C9.99011 18.4941 11.6657 18.3291 13.1884 17.6983C14.7111 17.0676 16.0126 15.9995 16.9283 14.6291C17.8439 13.2587 18.3327 11.6475 18.3327 9.99935C18.3327 8.905 18.1171 7.82137 17.6983 6.81032C17.2796 5.79927 16.6657 4.88061 15.8919 4.10679C15.1181 3.33297 14.1994 2.71914 13.1884 2.30035C12.1773 1.88156 11.0937 1.66602 9.99935 1.66602ZM9.99935 16.666C8.68081 16.666 7.39188 16.275 6.29555 15.5425C5.19922 14.8099 4.34474 13.7687 3.84016 12.5506C3.33557 11.3324 3.20355 9.99195 3.46078 8.69875C3.71802 7.40554 4.35296 6.21765 5.28531 5.2853C6.21766 4.35295 7.40554 3.71802 8.69875 3.46078C9.99196 3.20355 11.3324 3.33557 12.5506 3.84015C13.7687 4.34474 14.8099 5.19922 15.5425 6.29555C16.275 7.39188 16.666 8.68081 16.666 9.99935C16.666 11.7675 15.9636 13.4632 14.7134 14.7134C13.4632 15.9636 11.7675 16.666 9.99935 16.666Z" fill="#4B4B4B"/>
</svg>
