<svg width="28" height="28" viewBox="0 0 28 28" fill="none" xmlns="http://www.w3.org/2000/svg">
<path d="M19.8333 15.6448L14.8283 10.6981C14.7199 10.5888 14.5908 10.502 14.4487 10.4428C14.3065 10.3835 14.154 10.353 14 10.353C13.846 10.353 13.6935 10.3835 13.5513 10.4428C13.4091 10.502 13.2801 10.5888 13.1716 10.6981L8.22498 15.6448C8.11563 15.7532 8.02884 15.8823 7.96961 16.0245C7.91038 16.1666 7.87988 16.3191 7.87988 16.4731C7.87988 16.6271 7.91038 16.7796 7.96961 16.9218C8.02884 17.064 8.11563 17.193 8.22498 17.3015C8.44357 17.5188 8.73926 17.6407 9.04748 17.6407C9.3557 17.6407 9.65139 17.5188 9.86998 17.3015L14 13.1715L18.13 17.3015C18.3473 17.517 18.6406 17.6385 18.9466 17.6398C19.1002 17.6407 19.2524 17.6113 19.3945 17.5532C19.5367 17.4951 19.666 17.4096 19.775 17.3015C19.8882 17.1969 19.9796 17.0709 20.0439 16.9309C20.1082 16.7908 20.1441 16.6393 20.1496 16.4853C20.155 16.3312 20.1298 16.1777 20.0755 16.0334C20.0213 15.8891 19.9389 15.7571 19.8333 15.6448Z" fill="#4B4B4B"/>
</svg>
