<svg width="61" height="60" viewBox="0 0 61 60" fill="none" xmlns="http://www.w3.org/2000/svg">
<circle cx="30.5" cy="30" r="30" fill="#F5F5F5"/>
<path d="M40.5 31.9666V26.6666C40.4976 24.3051 39.6595 22.0207 38.1343 20.2179C36.6091 18.4151 34.4951 17.2102 32.1666 16.8166V14.9999C32.1666 14.5579 31.991 14.134 31.6785 13.8214C31.3659 13.5088 30.942 13.3333 30.5 13.3333C30.0579 13.3333 29.634 13.5088 29.3214 13.8214C29.0089 14.134 28.8333 14.5579 28.8333 14.9999V16.8166C26.5049 17.2102 24.3908 18.4151 22.8656 20.2179C21.3404 22.0207 20.5024 24.3051 20.5 26.6666V31.9666C19.5274 32.3104 18.685 32.9467 18.0882 33.7881C17.4914 34.6296 17.1695 35.635 17.1666 36.6666V39.9999C17.1666 40.4419 17.3422 40.8659 17.6548 41.1784C17.9673 41.491 18.3913 41.6666 18.8333 41.6666H24.0666C24.4504 43.0789 25.2883 44.3256 26.451 45.2145C27.6136 46.1033 29.0365 46.5849 30.5 46.5849C31.9635 46.5849 33.3863 46.1033 34.549 45.2145C35.7116 44.3256 36.5495 43.0789 36.9333 41.6666H42.1666C42.6087 41.6666 43.0326 41.491 43.3451 41.1784C43.6577 40.8659 43.8333 40.4419 43.8333 39.9999V36.6666C43.8304 35.635 43.5085 34.6296 42.9117 33.7881C42.315 32.9467 41.4725 32.3104 40.5 31.9666ZM23.8333 26.6666C23.8333 24.8985 24.5357 23.2028 25.7859 21.9525C27.0362 20.7023 28.7318 19.9999 30.5 19.9999C32.2681 19.9999 33.9638 20.7023 35.214 21.9525C36.4642 23.2028 37.1666 24.8985 37.1666 26.6666V31.6666H23.8333V26.6666ZM30.5 43.3333C29.9182 43.3297 29.3476 43.1741 28.8447 42.8817C28.3418 42.5893 27.9241 42.1704 27.6333 41.6666H33.3666C33.0758 42.1704 32.6581 42.5893 32.1552 42.8817C31.6523 43.1741 31.0817 43.3297 30.5 43.3333ZM40.5 38.3333H20.5V36.6666C20.5 36.2246 20.6756 35.8006 20.9881 35.4881C21.3007 35.1755 21.7246 34.9999 22.1666 34.9999H38.8333C39.2753 34.9999 39.6992 35.1755 40.0118 35.4881C40.3244 35.8006 40.5 36.2246 40.5 36.6666V38.3333Z" fill="#B3B3B3"/>
</svg>
