<svg width="375" height="215" viewBox="0 0 375 215" fill="none" xmlns="http://www.w3.org/2000/svg">
<path d="M295 107L375 107" stroke="#FFB84C" stroke-dasharray="5 5"/>
<path d="M0 107H81" stroke="#FFB84C" stroke-dasharray="5 5"/>
<circle cx="188" cy="107" r="107" fill="url(#paint0_linear_689_4995)"/>
<circle cx="188" cy="107" r="104.5" stroke="#FFB84C" stroke-width="5"/>
<path fill-rule="evenodd" clip-rule="evenodd" d="M161 33C161 36.3137 158.314 39 155 39C158.314 39 161 41.6863 161 45C161 41.6863 163.686 39 167 39C163.686 39 161 36.3137 161 33Z" fill="white"/>
<path fill-rule="evenodd" clip-rule="evenodd" d="M227.924 53.8909C226.11 56.6639 226.887 60.3825 229.66 62.1967C226.887 60.3825 223.169 61.1598 221.355 63.9327C223.169 61.1598 222.392 57.4411 219.619 55.6269C222.392 57.4411 226.11 56.6639 227.924 53.8909Z" fill="white"/>
<path fill-rule="evenodd" clip-rule="evenodd" d="M109 101C109 104.314 106.314 107 103 107C106.314 107 109 109.686 109 113C109 109.686 111.686 107 115 107C111.686 107 109 104.314 109 101Z" fill="#FFB84C"/>
<path fill-rule="evenodd" clip-rule="evenodd" d="M174 48C174 49.6569 172.657 51 171 51C172.657 51 174 52.3431 174 54C174 52.3431 175.343 51 177 51C175.343 51 174 49.6569 174 48Z" fill="white"/>
<path fill-rule="evenodd" clip-rule="evenodd" d="M208.833 59.3253C207.926 60.7118 208.315 62.5711 209.701 63.4782C208.315 62.5711 206.456 62.9598 205.548 64.3462C206.456 62.9598 206.067 61.1004 204.68 60.1934C206.067 61.1004 207.926 60.7118 208.833 59.3253Z" fill="white"/>
<path fill-rule="evenodd" clip-rule="evenodd" d="M253 70C253 71.6569 251.657 73 250 73C251.657 73 253 74.3431 253 76C253 74.3431 254.343 73 256 73C254.343 73 253 71.6569 253 70Z" fill="#FFB84C"/>
<path fill-rule="evenodd" clip-rule="evenodd" d="M190 53C190 54.6569 188.657 56 187 56C188.657 56 190 57.3431 190 59C190 57.3431 191.343 56 193 56C191.343 56 190 54.6569 190 53Z" fill="#FFB84C"/>
<path fill-rule="evenodd" clip-rule="evenodd" d="M218 21C218 22.6569 216.657 24 215 24C216.657 24 218 25.3431 218 27C218 25.3431 219.343 24 221 24C219.343 24 218 22.6569 218 21Z" fill="white"/>
<path fill-rule="evenodd" clip-rule="evenodd" d="M228 24C228 25.6569 226.657 27 225 27C226.657 27 228 28.3431 228 30C228 28.3431 229.343 27 231 27C229.343 27 228 25.6569 228 24Z" fill="white"/>
<path fill-rule="evenodd" clip-rule="evenodd" d="M186.794 12.6427C185.887 14.0292 186.276 15.8885 187.662 16.7956C186.276 15.8885 184.416 16.2771 183.509 17.6636C184.416 16.2771 184.028 14.4178 182.641 13.5107C184.028 14.4178 185.887 14.0292 186.794 12.6427Z" fill="white"/>
<mask id="mask0_689_4995" style="mask-type:alpha" maskUnits="userSpaceOnUse" x="81" y="0" width="214" height="214">
<circle cx="188" cy="107" r="104.5" fill="#D9D9D9" stroke="#FFB84C" stroke-width="5"/>
</mask>
<g mask="url(#mask0_689_4995)">
<path fill-rule="evenodd" clip-rule="evenodd" d="M243.086 133.962C252.528 127.856 259 115.709 259 103.727C259 86.7571 246.016 73 230 73C213.984 73 201 86.7571 201 103.727C201 116.64 208.517 129.745 219.167 135.273L217 142H226.403C225.484 146.002 224.636 150.753 224.319 155.184C224.093 158.344 224.126 161.488 224.669 164.13C225.193 166.68 226.323 169.372 228.824 170.706C229.86 171.259 230.923 171.725 231.882 172.142L231.995 172.192L231.995 172.192C232.938 172.603 233.771 172.966 234.543 173.367C236.133 174.193 237.13 175.018 237.694 176.165C238.265 177.326 238.599 179.248 237.888 182.689C237.176 186.135 235.465 190.857 232.256 197.399C231.647 198.639 232.159 200.136 233.399 200.744C234.639 201.353 236.136 200.841 236.744 199.601C240.035 192.893 241.95 187.74 242.784 183.701C243.62 179.658 243.423 176.487 242.181 173.96C240.933 171.419 238.836 169.963 236.848 168.93C235.919 168.447 234.941 168.021 234.043 167.63L234.043 167.63L233.879 167.559C232.906 167.135 232.015 166.741 231.177 166.294C230.678 166.028 229.996 165.212 229.566 163.123C229.156 161.127 229.095 158.502 229.307 155.541C229.631 151.004 230.568 146.022 231.539 142H246L243.086 133.962Z" fill="#FFB84C"/>
<path d="M230 138C227.5 146.833 224 165.3 230 168.5C237.5 172.5 247.5 172 234.5 198.5" stroke="#2B2B2B" stroke-linecap="round"/>
<path d="M222.5 138L225 130.5L235.5 130L238.5 138H222.5Z" fill="white" stroke="black"/>
<path d="M254.5 105C254.5 112.058 251.801 119.198 247.436 124.569C243.071 129.941 237.077 133.5 230.5 133.5C223.923 133.5 217.929 129.941 213.564 124.569C209.199 119.198 206.5 112.058 206.5 105C206.5 90.8883 217.273 79.5 230.5 79.5C243.727 79.5 254.5 90.8883 254.5 105Z" fill="white" stroke="black"/>
</g>
<path d="M147.904 126.703L197.396 165.521C191.306 188.057 168.737 190.895 158.157 191.435L147.904 126.703Z" fill="#FFB84C"/>
<path d="M151.665 133.195L193.302 167.453C186.962 183.098 169.37 187.077 161.367 187.11L151.665 133.195Z" fill="white" stroke="black"/>
<path d="M152.02 108.904C144.012 119.704 145.801 130.346 151.163 131.304C149.827 119.647 153.987 115.913 156.213 115.717L152.02 108.904Z" fill="#FFB84C"/>
<path d="M165.865 113.298C151.153 118.163 150.241 128.038 151.323 131.643C157.478 122.57 161.316 120.208 165.18 120.765L165.865 113.298Z" fill="#FFB84C"/>
<path d="M172.659 124.382C158.982 121.083 151.698 128.478 152.254 132.245C161.025 127.672 162.933 128.607 169.124 130.081L172.659 124.382Z" fill="#FFB84C"/>
<path d="M152.019 111.253C144.866 121.762 148.276 129.018 150.875 131.332C148.148 120.799 152.074 116.112 154.378 115.085L152.019 111.253Z" fill="white" stroke="black"/>
<path d="M164.094 115.148C152.266 119.805 150.999 127.722 151.843 131.098C155.521 120.857 161.404 119.194 163.886 119.643L164.094 115.148Z" fill="white" stroke="black"/>
<path d="M171.145 125.144C158.671 122.695 153.338 128.681 152.23 131.981C160.846 125.335 166.962 128.477 168.548 128.819L171.145 125.144Z" fill="white" stroke="black"/>
<mask id="mask1_689_4995" style="mask-type:alpha" maskUnits="userSpaceOnUse" x="150" y="131" width="44" height="57">
<path d="M151.665 133.195L193.302 167.453C186.962 183.098 169.37 187.077 161.367 187.11L151.665 133.195Z" fill="white" stroke="black"/>
</mask>
<g mask="url(#mask1_689_4995)">
<rect x="142.514" y="148.852" width="7" height="36" transform="rotate(-91.1991 142.514 148.852)" fill="#2B2B2B"/>
<rect x="148.287" y="162.045" width="7" height="38.7766" transform="rotate(-91.1991 148.287 162.045)" fill="#2B2B2B"/>
<rect x="156.5" y="175.388" width="7" height="38.7766" transform="rotate(-91.1991 156.5 175.388)" fill="#2B2B2B"/>
<rect x="155.49" y="189.009" width="7" height="38.7766" transform="rotate(-91.1991 155.49 189.009)" fill="#2B2B2B"/>
</g>
<mask id="mask2_689_4995" style="mask-type:alpha" maskUnits="userSpaceOnUse" x="81" y="1" width="214" height="214">
<circle cx="188" cy="108" r="104.5" fill="white" stroke="#FFB84C" stroke-width="5"/>
</mask>
<g mask="url(#mask2_689_4995)">
<path d="M91.5 74C122.833 70.1667 188.5 51 200.5 5" stroke="#FFB84C" stroke-width="5" stroke-linecap="round"/>
<path d="M140.051 99.6339L111.002 69.8845L128.714 64.9372L145.533 58.4175L140.051 99.6339Z" fill="#FFB84C"/>
<path d="M184.252 80.859L147.539 57.699L164.698 48.7233L180.235 37.109L184.252 80.859Z" fill="#FFB84C"/>
<path d="M223.007 46.5516L178.47 38.7864L191.263 23.2729L199.394 7.99972L223.007 46.5516Z" fill="#FFB84C"/>
<path d="M91.5 74C122.833 70.1667 188 51.5 200 5.5" stroke="#2B2B2B" stroke-linecap="round"/>
<path d="M140.71 60.7666L137.228 91.706L115.929 68.9947L128.633 65.4814L128.658 65.4746L128.682 65.4652L140.71 60.7666Z" fill="#64B6F7" stroke="black"/>
<path d="M175.59 40.9243L178.705 71.8405L153.948 55.0387L164.745 48.9351L164.772 48.9201L164.796 48.902L175.59 40.9243Z" fill="#FBEAEA" stroke="black"/>
<path d="M197.604 13.0126L213.616 39.6532L182.937 34.5688L191.886 23.6711L191.918 23.6331L191.941 23.5898L197.604 13.0126Z" fill="#14B8A6" stroke="black"/>
</g>
<defs>
<linearGradient id="paint0_linear_689_4995" x1="188" y1="0" x2="188" y2="214" gradientUnits="userSpaceOnUse">
<stop stop-color="#FFB84C"/>
<stop offset="1" stop-color="white" stop-opacity="0"/>
</linearGradient>
</defs>
</svg>
