<svg width="375" height="319" viewBox="0 0 375 319" fill="none" xmlns="http://www.w3.org/2000/svg">
<path d="M295 168L375 168" stroke="#FFB84C" stroke-dasharray="5 5"/>
<path d="M0 168H81" stroke="#FFB84C" stroke-dasharray="5 5"/>
<circle r="107" transform="matrix(-1 0 0 1 188 168)" fill="url(#paint0_linear_134_3882)"/>
<path fill-rule="evenodd" clip-rule="evenodd" d="M215 94C215 97.3137 217.686 100 221 100C217.686 100 215 102.686 215 106C215 102.686 212.314 100 209 100C212.314 100 215 97.3137 215 94Z" fill="white"/>
<path fill-rule="evenodd" clip-rule="evenodd" d="M148.076 114.891C149.89 117.664 149.113 121.383 146.34 123.197C149.113 121.383 152.831 122.16 154.645 124.933C152.831 122.16 153.608 118.441 156.381 116.627C153.608 118.441 149.89 117.664 148.076 114.891Z" fill="white"/>
<path fill-rule="evenodd" clip-rule="evenodd" d="M267 162C267 165.314 269.686 168 273 168C269.686 168 267 170.686 267 174C267 170.686 264.314 168 261 168C264.314 168 267 165.314 267 162Z" fill="#FFB84C"/>
<path fill-rule="evenodd" clip-rule="evenodd" d="M202 109C202 110.657 203.343 112 205 112C203.343 112 202 113.343 202 115C202 113.343 200.657 112 199 112C200.657 112 202 110.657 202 109Z" fill="white"/>
<path fill-rule="evenodd" clip-rule="evenodd" d="M191 216C191 214.343 192.343 213 194 213C192.343 213 191 211.657 191 210C191 211.657 189.657 213 188 213C189.657 213 191 214.343 191 216Z" fill="#FFB84C"/>
<path fill-rule="evenodd" clip-rule="evenodd" d="M164.308 140.044C165.884 140.557 166.746 142.249 166.234 143.825C166.746 142.249 168.439 141.387 170.014 141.899C168.439 141.387 167.577 139.694 168.089 138.119C167.577 139.694 165.884 140.557 164.308 140.044Z" fill="white"/>
<path fill-rule="evenodd" clip-rule="evenodd" d="M208.587 212.674C208.425 211.025 206.958 209.819 205.309 209.981C206.958 209.819 208.163 208.351 208.001 206.702C208.163 208.351 209.631 209.557 211.28 209.395C209.631 209.557 208.425 211.025 208.587 212.674Z" fill="#FFB84C"/>
<path fill-rule="evenodd" clip-rule="evenodd" d="M167.477 232.029C166.439 230.738 166.644 228.85 167.936 227.811C166.644 228.85 164.756 228.644 163.718 227.353C164.756 228.644 164.551 230.533 163.26 231.571C164.551 230.533 166.439 230.738 167.477 232.029Z" fill="#FFB84C"/>
<path fill-rule="evenodd" clip-rule="evenodd" d="M175.022 123.314C176.06 124.605 177.949 124.81 179.24 123.772C177.949 124.81 177.744 126.699 178.782 127.99C177.744 126.699 175.855 126.493 174.564 127.532C175.855 126.493 176.06 124.605 175.022 123.314Z" fill="#FFB84C"/>
<path fill-rule="evenodd" clip-rule="evenodd" d="M227.228 205.804C226.19 204.512 226.395 202.624 227.687 201.586C226.395 202.624 224.507 202.419 223.469 201.127C224.507 202.419 224.302 204.307 223.011 205.345C224.302 204.307 226.19 204.512 227.228 205.804Z" fill="#FFB84C"/>
<path fill-rule="evenodd" clip-rule="evenodd" d="M133.15 115.919C134.188 117.21 136.077 117.415 137.368 116.377C136.077 117.415 135.872 119.304 136.91 120.595C135.872 119.304 133.983 119.098 132.692 120.137C133.983 119.098 134.188 117.21 133.15 115.919Z" fill="white"/>
<path fill-rule="evenodd" clip-rule="evenodd" d="M225.458 248.287C224.42 246.996 224.625 245.107 225.916 244.069C224.625 245.107 222.736 244.902 221.698 243.611C222.736 244.902 222.531 246.791 221.24 247.829C222.531 246.791 224.42 246.996 225.458 248.287Z" fill="#FFB84C"/>
<path fill-rule="evenodd" clip-rule="evenodd" d="M215.784 252.215C214.746 250.923 214.951 249.035 216.242 247.997C214.951 249.035 213.063 248.83 212.024 247.539C213.063 248.83 212.857 250.718 211.566 251.756C212.857 250.718 214.746 250.923 215.784 252.215Z" fill="#FFB84C"/>
<path fill-rule="evenodd" clip-rule="evenodd" d="M152.233 89.853C153.809 90.3652 154.671 92.0578 154.159 93.6335C154.671 92.0578 156.363 91.1956 157.939 91.7078C156.363 91.1956 155.501 89.503 156.014 87.9273C155.501 89.503 153.809 90.3652 152.233 89.853Z" fill="white"/>
<path fill-rule="evenodd" clip-rule="evenodd" d="M170.367 76.853C171.943 77.3652 172.805 79.0578 172.293 80.6335C172.805 79.0578 174.497 78.1956 176.073 78.7078C174.497 78.1956 173.635 76.503 174.147 74.9273C173.635 76.503 171.943 77.3652 170.367 76.853Z" fill="white"/>
<path fill-rule="evenodd" clip-rule="evenodd" d="M255.014 235.248C254.852 233.599 253.384 232.394 251.735 232.555C253.384 232.394 254.59 230.926 254.428 229.277C254.59 230.926 256.058 232.131 257.707 231.969C256.058 232.131 254.852 233.599 255.014 235.248Z" fill="#FFB84C"/>
<mask id="mask0_134_3882" style="mask-type:alpha" maskUnits="userSpaceOnUse" x="81" y="61" width="214" height="214">
<circle r="107" transform="matrix(-1 0 0 1 188 168)" fill="#D9D9D9"/>
</mask>
<g mask="url(#mask0_134_3882)">
<ellipse cx="153.359" cy="201.157" rx="50.6364" ry="42.0539" transform="rotate(8.60511 153.359 201.157)" fill="#FFB84C"/>
<path d="M197.061 207.77C194.058 227.616 172.117 240.886 147.902 237.222C123.687 233.557 106.654 214.39 109.657 194.543C112.661 174.697 134.602 161.428 158.817 165.092C183.032 168.756 200.065 187.924 197.061 207.77Z" fill="white" stroke="#2B2B2B" stroke-width="0.858243"/>
<path d="M240.52 107.545L224.271 116.579L240.892 141.053L256.228 126.951L240.52 107.545Z" fill="#FFB84C"/>
<ellipse cx="258.956" cy="107.576" rx="19.7396" ry="20.9982" transform="rotate(-19.4722 258.956 107.576)" fill="#FFB84C"/>
<ellipse cx="212.272" cy="144.017" rx="30.3537" ry="34.3485" transform="rotate(-28.9364 212.272 144.017)" fill="#FFB84C"/>
<mask id="path-26-inside-1_134_3882" fill="white">
<path fill-rule="evenodd" clip-rule="evenodd" d="M271.692 118.825C277.195 114.132 276.641 104.448 270.456 97.1947C264.27 89.9412 254.795 87.8652 249.292 92.5578C248.578 93.1669 247.966 93.8601 247.454 94.6212C247.017 94.8905 246.598 95.1947 246.2 95.5344C240.697 100.227 241.251 109.911 247.437 117.165C253.622 124.418 263.097 126.494 268.6 121.802C269.314 121.193 269.927 120.499 270.438 119.738C270.875 119.469 271.294 119.165 271.692 118.825Z"/>
</mask>
<path fill-rule="evenodd" clip-rule="evenodd" d="M271.692 118.825C277.195 114.132 276.641 104.448 270.456 97.1947C264.27 89.9412 254.795 87.8652 249.292 92.5578C248.578 93.1669 247.966 93.8601 247.454 94.6212C247.017 94.8905 246.598 95.1947 246.2 95.5344C240.697 100.227 241.251 109.911 247.437 117.165C253.622 124.418 263.097 126.494 268.6 121.802C269.314 121.193 269.927 120.499 270.438 119.738C270.875 119.469 271.294 119.165 271.692 118.825Z" fill="#E2E2E2"/>
<path d="M270.456 97.1947L269.803 97.7516L270.456 97.1947ZM271.692 118.825L271.135 118.172L271.135 118.172L271.692 118.825ZM249.292 92.5578L248.735 91.9047L248.735 91.9047L249.292 92.5578ZM247.454 94.6212L247.905 95.3519L248.063 95.2542L248.167 95.0997L247.454 94.6212ZM246.2 95.5344L245.643 94.8814L246.2 95.5344ZM268.6 121.802L269.157 122.455L268.6 121.802ZM270.438 119.738L269.988 119.008L269.829 119.105L269.725 119.26L270.438 119.738ZM269.803 97.7516C272.785 101.249 274.388 105.308 274.6 109.019C274.812 112.729 273.638 116.038 271.135 118.172L272.249 119.478C275.249 116.92 276.549 113.04 276.314 108.921C276.079 104.803 274.312 100.394 271.109 96.6378L269.803 97.7516ZM249.849 93.2108C252.352 91.0764 255.804 90.4395 259.434 91.2348C263.065 92.0303 266.82 94.2543 269.803 97.7516L271.109 96.6378C267.905 92.8817 263.83 90.4409 259.801 89.5581C255.772 88.6752 251.735 89.3466 248.735 91.9047L249.849 93.2108ZM248.167 95.0997C248.635 94.4021 249.196 93.768 249.849 93.2108L248.735 91.9047C247.96 92.5658 247.296 93.3181 246.742 94.1427L248.167 95.0997ZM246.757 96.1874C247.121 95.8766 247.505 95.5983 247.905 95.3519L247.004 93.8905C246.53 94.1828 246.075 94.5129 245.643 94.8814L246.757 96.1874ZM248.09 116.608C245.107 113.11 243.504 109.051 243.292 105.34C243.08 101.63 244.254 98.3219 246.757 96.1874L245.643 94.8814C242.643 97.4395 241.343 101.32 241.578 105.438C241.814 109.556 243.58 113.965 246.783 117.722L248.09 116.608ZM268.043 121.149C265.54 123.283 262.088 123.92 258.458 123.125C254.827 122.329 251.072 120.105 248.09 116.608L246.783 117.722C249.987 121.478 254.062 123.919 258.091 124.801C262.121 125.684 266.157 125.013 269.157 122.455L268.043 121.149ZM269.725 119.26C269.257 119.957 268.697 120.591 268.043 121.149L269.157 122.455C269.932 121.794 270.596 121.041 271.15 120.217L269.725 119.26ZM271.135 118.172C270.771 118.483 270.387 118.761 269.988 119.008L270.888 120.469C271.362 120.177 271.817 119.847 272.249 119.478L271.135 118.172Z" fill="#2B2B2B" mask="url(#path-26-inside-1_134_3882)"/>
<path d="M252.347 106.541L220.822 125.721C228.935 132.35 231.344 139.576 231.535 142.361L259.163 114.213C260.133 107.498 255.075 106.049 252.347 106.541Z" fill="#E2E2E2" stroke="#2B2B2B" stroke-width="0.858243"/>
<mask id="path-29-inside-2_134_3882" fill="white">
<path fill-rule="evenodd" clip-rule="evenodd" d="M233.895 161.287C242.541 153.913 241.671 138.697 231.952 127.3C222.233 115.903 207.345 112.641 198.699 120.014C197.576 120.971 196.614 122.06 195.811 123.256C195.124 123.679 194.466 124.157 193.84 124.691C185.194 132.064 186.064 147.281 195.783 158.678C205.503 170.075 220.391 173.337 229.037 165.964C230.159 165.007 231.121 163.917 231.924 162.721C232.611 162.298 233.27 161.82 233.895 161.287Z"/>
</mask>
<path fill-rule="evenodd" clip-rule="evenodd" d="M233.895 161.287C242.541 153.913 241.671 138.697 231.952 127.3C222.233 115.903 207.345 112.641 198.699 120.014C197.576 120.971 196.614 122.06 195.811 123.256C195.124 123.679 194.466 124.157 193.84 124.691C185.194 132.064 186.064 147.281 195.783 158.678C205.503 170.075 220.391 173.337 229.037 165.964C230.159 165.007 231.121 163.917 231.924 162.721C232.611 162.298 233.27 161.82 233.895 161.287Z" fill="#E2E2E2"/>
<path d="M231.952 127.3L232.605 126.743L231.952 127.3ZM233.895 161.287L234.452 161.94L234.452 161.94L233.895 161.287ZM198.699 120.014L199.255 120.667L199.255 120.667L198.699 120.014ZM195.811 123.256L196.261 123.987L196.42 123.889L196.524 123.735L195.811 123.256ZM193.84 124.691L194.397 125.344L193.84 124.691ZM195.783 158.678L195.13 159.235L195.783 158.678ZM229.037 165.964L229.594 166.617L229.037 165.964ZM231.924 162.721L231.474 161.991L231.316 162.088L231.212 162.243L231.924 162.721ZM231.299 127.857C236.048 133.426 238.614 139.904 238.954 145.851C239.294 151.797 237.413 157.159 233.338 160.634L234.452 161.94C239.024 158.041 241.031 152.108 240.668 145.753C240.304 139.399 237.575 132.571 232.605 126.743L231.299 127.857ZM199.255 120.667C203.33 117.192 208.921 116.182 214.739 117.456C220.558 118.731 226.55 122.287 231.299 127.857L232.605 126.743C227.635 120.915 221.323 117.142 215.107 115.779C208.889 114.417 202.713 115.462 198.142 119.361L199.255 120.667ZM196.524 123.735C197.284 122.602 198.194 121.572 199.255 120.667L198.142 119.361C196.958 120.37 195.944 121.518 195.099 122.778L196.524 123.735ZM194.397 125.344C194.989 124.839 195.612 124.387 196.261 123.987L195.361 122.525C194.637 122.972 193.943 123.475 193.283 124.038L194.397 125.344ZM196.436 158.121C191.687 152.552 189.121 146.073 188.781 140.126C188.441 134.18 190.322 128.819 194.397 125.344L193.283 124.038C188.712 127.936 186.704 133.87 187.068 140.224C187.431 146.578 190.16 153.407 195.13 159.235L196.436 158.121ZM228.48 165.311C224.405 168.785 218.814 169.796 212.996 168.521C207.178 167.246 201.186 163.69 196.436 158.121L195.13 159.235C200.1 165.063 206.412 168.836 212.629 170.198C218.846 171.56 225.022 170.515 229.594 166.617L228.48 165.311ZM231.212 162.243C230.451 163.375 229.541 164.405 228.48 165.311L229.594 166.617C230.777 165.608 231.791 164.459 232.637 163.2L231.212 162.243ZM233.338 160.634C232.746 161.138 232.124 161.59 231.474 161.991L232.374 163.452C233.099 163.006 233.793 162.502 234.452 161.94L233.338 160.634Z" fill="#2B2B2B" mask="url(#path-29-inside-2_134_3882)"/>
<path d="M223.789 133.718C228.594 139.352 231.2 145.918 231.546 151.966C231.892 158.014 229.979 163.519 225.781 167.1C221.582 170.68 215.844 171.7 209.927 170.403C204.008 169.106 197.936 165.496 193.132 159.862C188.327 154.228 185.721 147.662 185.375 141.613C185.029 135.565 186.942 130.061 191.141 126.48C195.34 122.899 201.077 121.88 206.995 123.177C212.913 124.473 218.985 128.084 223.789 133.718Z" fill="white" stroke="#2B2B2B" stroke-width="0.858243"/>
<path d="M220.453 136.901C224.538 141.692 226.753 147.273 227.047 152.412C227.341 157.55 225.716 162.219 222.157 165.254C218.598 168.29 213.731 169.157 208.703 168.055C203.676 166.954 198.514 163.885 194.428 159.095C190.343 154.304 188.128 148.722 187.834 143.584C187.541 138.446 189.165 133.777 192.725 130.741C196.284 127.706 201.151 126.839 206.178 127.941C211.206 129.042 216.368 132.11 220.453 136.901Z" fill="white" stroke="#2B2B2B" stroke-width="0.858243"/>
<path d="M251.092 96.0464C257.987 96.4021 269.126 99.3357 269.562 116.263" stroke="#2B2B2B" stroke-width="0.858243"/>
<g clip-path="url(#clip0_134_3882)">
<path d="M213.904 146.284L213.336 146.519L213.074 146.206L212.846 146.398L213.227 146.852L212.658 147.087L211.807 146.071L212.397 145.577L212.337 145.791L212.675 146.194L212.903 146.002L212.485 145.504L213.074 145.01L213.015 145.223L213.904 146.284Z" fill="#FFC44D"/>
<path d="M214.125 146.1L213.997 145.947L214.417 145.595L213.704 144.745L213.277 145.103L213.148 144.948L215.011 143.387L214.944 143.607L215.833 144.668L214.125 146.1ZM214.515 144.066L214.183 144.344L214.896 145.194L215.227 144.917L214.515 144.066Z" fill="#FFC44D"/>
<path d="M208.444 150.596L206.99 151.815L207.333 151.79L209.052 150.35L208.162 149.288L208.226 149.072L206.377 150.649L206.279 150.967L207.733 149.748L208.444 150.596L208.444 150.596ZM209.534 151.239L209.094 150.713L209.157 150.497L208.534 151.018L209.055 151.64M205.541 152.367L205.906 152.062L206.552 152.833L207.212 152.649L205.95 151.143L206.013 150.927L205.39 151.448L205.736 151.861L205.147 152.355L205.541 152.368L205.541 152.367Z" fill="#4B4B4B"/>
<path d="M203.746 154.796L203.943 154.075L203.376 153.399L204.834 152.177C204.892 151.987 204.927 151.87 204.94 151.825L202.776 153.639L203.746 154.796ZM206.156 154.069L205.984 153.863L206.051 153.644L203.842 155.495L203.704 155.33L205.587 153.768L205.766 153.338L203.103 155.57L203.501 156.044L205.555 154.323L205.678 154.47M202.807 155.216L203.459 155.038L202.569 153.976L202.636 153.756L202.017 154.274L202.806 155.216L202.807 155.216Z" fill="#4B4B4B"/>
<path d="M216.848 145.226L216.725 145.33L216.7 145.3L216.823 145.196L216.848 145.226Z" fill="#F4F4F4"/>
<path d="M213.117 147.378C213.193 147.182 213.334 146.998 213.538 146.826L215.192 145.441C215.397 145.269 215.603 145.163 215.809 145.122C216.015 145.081 216.164 145.115 216.255 145.223C216.34 145.325 216.351 145.465 216.29 145.643L216.207 145.713L216.231 145.743L216.261 145.718C216.182 145.901 216.047 146.072 215.856 146.233L214.202 147.618C214.01 147.779 213.818 147.882 213.624 147.928L213.645 147.91L213.62 147.88L213.545 147.943C213.359 147.972 213.223 147.937 213.138 147.835C213.047 147.727 213.04 147.574 213.117 147.378ZM215.985 145.949L216.109 145.846L216.084 145.816L215.96 145.92L215.985 145.949ZM215.739 146.156L215.863 146.052L215.838 146.022L215.714 146.126L215.739 146.156ZM215.492 146.362L215.616 146.259L215.591 146.229L215.467 146.333L215.492 146.362ZM215.248 146.567L215.371 146.464L215.346 146.434L215.223 146.538L215.248 146.567ZM215.001 146.774L215.125 146.67L215.1 146.64L214.976 146.744L215.001 146.774ZM214.755 146.98L214.879 146.877L214.854 146.847L214.73 146.951L214.755 146.98ZM214.508 147.187L214.632 147.083L214.607 147.053L214.483 147.157L214.508 147.187ZM214.262 147.393L214.386 147.29L214.361 147.26L214.237 147.364L214.262 147.393ZM214.016 147.6L214.139 147.496L214.114 147.466L213.991 147.57L214.016 147.6ZM213.864 147.431C213.997 147.392 214.129 147.316 214.263 147.204L215.438 146.219C215.572 146.107 215.67 145.989 215.732 145.865C215.794 145.741 215.799 145.65 215.75 145.591C215.7 145.532 215.609 145.522 215.476 145.56C215.344 145.599 215.21 145.675 215.076 145.787L213.901 146.772C213.767 146.884 213.669 147.003 213.607 147.126C213.545 147.251 213.54 147.342 213.589 147.401C213.639 147.46 213.73 147.47 213.863 147.431L213.864 147.431ZM213.769 147.807L213.893 147.703L213.868 147.673L213.744 147.777L213.769 147.807Z" fill="#FFC44D"/>
<path d="M203.549 156.37L203.611 156.318L203.586 156.288L203.558 156.312L203.582 156.141L212.389 148.761L211.599 147.819L210.141 149.04L209.367 148.116L211.532 146.302L211.43 146.651L209.976 147.87L210.49 148.484L212.088 147.145L212.025 147.361L212.938 148.451L212.832 148.54L212.857 148.57L212.963 148.481L213.06 148.596L203.517 156.593L203.549 156.369L203.549 156.37ZM212.61 148.777L212.734 148.673L212.709 148.643L212.585 148.747L212.61 148.777ZM212.364 148.984L212.488 148.88L212.463 148.85L212.339 148.954L212.364 148.984ZM212.117 149.19L212.241 149.086L212.216 149.056L212.093 149.16L212.117 149.19ZM211.871 149.396L211.995 149.293L211.97 149.263L211.846 149.367L211.871 149.396ZM211.625 149.603L211.749 149.499L211.724 149.469L211.6 149.573L211.625 149.603ZM211.378 149.809L211.502 149.706L211.477 149.676L211.353 149.78L211.378 149.809ZM211.132 150.016L211.256 149.912L211.231 149.882L211.107 149.986L211.132 150.016ZM210.885 150.222L211.009 150.119L210.984 150.089L210.86 150.193L210.885 150.222ZM210.639 150.429L210.763 150.325L210.738 150.295L210.614 150.399L210.639 150.429ZM210.393 150.635L210.517 150.532L210.492 150.502L210.368 150.605L210.393 150.635ZM210.146 150.842L210.27 150.738L210.245 150.708L210.121 150.812L210.146 150.842ZM209.9 151.048L210.024 150.944L209.999 150.915L209.875 151.018L209.9 151.048ZM209.653 151.255L209.777 151.151L209.752 151.121L209.628 151.225L209.653 151.255ZM209.407 151.461L209.531 151.357L209.506 151.328L209.382 151.431L209.407 151.461ZM209.161 151.668L209.284 151.564L209.259 151.534L209.136 151.638L209.161 151.668ZM208.914 151.874L209.038 151.77L209.013 151.741L208.889 151.844L208.914 151.874ZM208.668 152.081L208.792 151.977L208.767 151.947L208.643 152.051L208.668 152.081ZM208.421 152.287L208.545 152.183L208.52 152.153L208.396 152.257L208.421 152.287ZM208.175 152.494L208.299 152.39L208.274 152.36L208.15 152.464L208.175 152.494ZM207.929 152.7L208.052 152.596L208.027 152.566L207.904 152.67L207.929 152.7ZM207.682 152.906L207.806 152.803L207.781 152.773L207.657 152.877L207.682 152.906ZM207.436 153.113L207.56 153.009L207.535 152.979L207.411 153.083L207.436 153.113ZM207.189 153.319L207.313 153.216L207.288 153.186L207.164 153.29L207.189 153.319ZM206.943 153.526L207.067 153.422L207.042 153.392L206.918 153.496L206.943 153.526ZM206.697 153.732L206.82 153.629L206.795 153.599L206.672 153.703L206.697 153.732ZM206.45 153.939L206.574 153.835L206.549 153.805L206.425 153.909L206.45 153.939ZM206.204 154.145L206.328 154.042L206.303 154.012L206.179 154.116L206.204 154.145ZM205.957 154.352L206.081 154.248L206.056 154.218L205.932 154.322L205.957 154.352ZM205.711 154.558L205.835 154.454L205.81 154.425L205.686 154.528L205.711 154.558ZM205.465 154.765L205.588 154.661L205.563 154.631L205.44 154.735L205.465 154.765ZM205.218 154.971L205.342 154.867L205.317 154.838L205.193 154.941L205.218 154.971ZM204.972 155.178L205.096 155.074L205.071 155.044L204.947 155.148L204.972 155.178ZM204.725 155.384L204.849 155.28L204.824 155.251L204.7 155.354L204.725 155.384ZM204.479 155.591L204.603 155.487L204.578 155.457L204.454 155.561L204.479 155.591ZM204.233 155.797L204.356 155.693L204.331 155.663L204.208 155.767L204.233 155.797ZM203.986 156.004L204.11 155.9L204.085 155.87L203.961 155.974L203.986 156.004ZM203.74 156.21L203.864 156.106L203.839 156.076L203.715 156.18L203.74 156.21Z" fill="#4B4B4B"/>
<path d="M210.434 149.959L209.801 150.175L208.616 148.746L209.238 148.224L209.175 148.441L210.434 149.959Z" fill="#4B4B4B"/>
</g>
<path d="M208.497 141.471L209.288 140.809L211.897 143.922L211.106 144.584L208.497 141.471Z" fill="#4B4B4B"/>
<path d="M202.575 145.845L202.971 145.514L205.869 148.973L205.474 149.304L202.575 145.845Z" fill="#4B4B4B"/>
<path d="M207.857 142.513L208.252 142.182L208.542 142.528L208.146 142.859L207.857 142.513Z" fill="#4B4B4B"/>
<path d="M207.215 143.051L207.61 142.72L207.9 143.066L207.505 143.397L207.215 143.051Z" fill="#4B4B4B"/>
<path d="M208.396 143.155L208.791 142.824L209.122 143.219L208.727 143.55L208.396 143.155Z" fill="#4B4B4B"/>
<path d="M207.753 143.693L208.148 143.362L208.48 143.757L208.084 144.088L207.753 143.693Z" fill="#4B4B4B"/>
<path d="M208.934 143.797L209.329 143.466L209.66 143.861L209.265 144.192L208.934 143.797Z" fill="#4B4B4B"/>
<path d="M208.291 144.336L208.687 144.004L209.018 144.4L208.622 144.731L208.291 144.336Z" fill="#4B4B4B"/>
<path d="M209.472 144.44L209.867 144.108L210.198 144.504L209.803 144.835L209.472 144.44Z" fill="#4B4B4B"/>
<path d="M208.829 144.978L209.225 144.646L209.556 145.042L209.161 145.373L208.829 144.978Z" fill="#4B4B4B"/>
<path d="M202.471 147.026L202.866 146.694L203.156 147.04L202.761 147.371L202.471 147.026Z" fill="#4B4B4B"/>
<path d="M201.828 147.564L202.224 147.233L202.513 147.579L202.118 147.91L201.828 147.564Z" fill="#4B4B4B"/>
<path d="M203.009 147.668L203.404 147.337L203.736 147.732L203.34 148.063L203.009 147.668Z" fill="#4B4B4B"/>
<path d="M202.367 148.206L202.763 147.875L203.094 148.27L202.699 148.602L202.367 148.206Z" fill="#4B4B4B"/>
<path d="M203.548 148.31L203.943 147.979L204.275 148.374L203.879 148.706L203.548 148.31Z" fill="#4B4B4B"/>
<path d="M202.905 148.849L203.301 148.518L203.632 148.913L203.237 149.244L202.905 148.849Z" fill="#4B4B4B"/>
<path d="M204.086 148.952L204.481 148.621L204.813 149.016L204.417 149.348L204.086 148.952Z" fill="#4B4B4B"/>
<path d="M203.444 149.491L203.839 149.16L204.17 149.555L203.775 149.886L203.444 149.491Z" fill="#4B4B4B"/>
<path d="M201.186 148.102L201.532 147.812L201.822 148.158L201.476 148.448L201.186 148.102Z" fill="#4B4B4B"/>
<path d="M200.544 148.64L200.89 148.351L201.179 148.696L200.834 148.986L200.544 148.64Z" fill="#4B4B4B"/>
<path d="M201.724 148.744L202.07 148.455L202.402 148.85L202.056 149.14L201.724 148.744Z" fill="#4B4B4B"/>
<path d="M201.082 149.283L201.428 148.993L201.759 149.388L201.413 149.678L201.082 149.283Z" fill="#4B4B4B"/>
<path d="M202.263 149.387L202.608 149.097L202.94 149.492L202.594 149.782L202.263 149.387Z" fill="#4B4B4B"/>
<path d="M201.621 149.925L201.967 149.635L202.298 150.031L201.952 150.32L201.621 149.925Z" fill="#4B4B4B"/>
<path d="M202.802 150.029L203.147 149.739L203.479 150.135L203.133 150.424L202.802 150.029Z" fill="#4B4B4B"/>
<path d="M202.159 150.567L202.505 150.277L202.836 150.673L202.49 150.962L202.159 150.567Z" fill="#4B4B4B"/>
<path d="M203.316 142.112L203.612 141.864L203.944 142.259L203.647 142.507L203.316 142.112Z" fill="#4B4B4B"/>
<path d="M202.823 142.526L203.119 142.278L203.45 142.673L203.154 142.922L202.823 142.526Z" fill="#4B4B4B"/>
<path d="M203.855 142.754L204.151 142.506L204.483 142.901L204.186 143.15L203.855 142.754Z" fill="#4B4B4B"/>
<path d="M203.361 143.169L203.657 142.92L203.988 143.316L203.692 143.564L203.361 143.169Z" fill="#4B4B4B"/>
<path d="M204.393 143.397L204.689 143.148L205.021 143.544L204.724 143.792L204.393 143.397Z" fill="#4B4B4B"/>
<path d="M203.899 143.811L204.195 143.562L204.527 143.958L204.23 144.206L203.899 143.811Z" fill="#4B4B4B"/>
<path d="M204.931 144.039L205.228 143.791L205.559 144.186L205.262 144.435L204.931 144.039Z" fill="#4B4B4B"/>
<path d="M204.437 144.453L204.733 144.205L205.065 144.6L204.768 144.848L204.437 144.453Z" fill="#4B4B4B"/>
<path d="M205.469 144.682L205.766 144.433L206.097 144.828L205.8 145.077L205.469 144.682Z" fill="#4B4B4B"/>
<path d="M204.975 145.096L205.271 144.847L205.603 145.242L205.306 145.491L204.975 145.096Z" fill="#4B4B4B"/>
<path d="M206.007 145.324L206.304 145.076L206.635 145.471L206.338 145.719L206.007 145.324Z" fill="#4B4B4B"/>
<path d="M205.513 145.738L205.81 145.49L206.141 145.885L205.844 146.133L205.513 145.738Z" fill="#4B4B4B"/>
<path d="M206.545 145.966L206.842 145.718L207.173 146.113L206.877 146.361L206.545 145.966Z" fill="#4B4B4B"/>
<path d="M206.052 146.38L206.349 146.132L206.68 146.527L206.383 146.776L206.052 146.38Z" fill="#4B4B4B"/>
<path d="M207.084 146.609L207.381 146.36L207.712 146.756L207.416 147.004L207.084 146.609Z" fill="#4B4B4B"/>
<path d="M206.59 147.022L206.887 146.774L207.218 147.169L206.921 147.418L206.59 147.022Z" fill="#4B4B4B"/>
<path d="M202.279 142.982L202.575 142.733L202.906 143.129L202.61 143.377L202.279 142.982Z" fill="#4B4B4B"/>
<path d="M201.785 143.396L202.081 143.147L202.412 143.543L202.116 143.791L201.785 143.396Z" fill="#4B4B4B"/>
<path d="M202.817 143.624L203.113 143.375L203.445 143.771L203.148 144.019L202.817 143.624Z" fill="#4B4B4B"/>
<path d="M202.323 144.038L202.619 143.79L202.95 144.185L202.654 144.433L202.323 144.038Z" fill="#4B4B4B"/>
<path d="M203.355 144.266L203.651 144.018L203.983 144.413L203.686 144.662L203.355 144.266Z" fill="#4B4B4B"/>
<path d="M202.861 144.681L203.157 144.432L203.488 144.827L203.192 145.076L202.861 144.681Z" fill="#4B4B4B"/>
<path d="M203.893 144.909L204.189 144.66L204.521 145.055L204.224 145.304L203.893 144.909Z" fill="#4B4B4B"/>
<path d="M203.4 145.323L203.696 145.074L204.028 145.47L203.731 145.718L203.4 145.323Z" fill="#4B4B4B"/>
<path d="M204.432 145.551L204.729 145.303L205.06 145.698L204.763 145.946L204.432 145.551Z" fill="#4B4B4B"/>
<path d="M203.938 145.965L204.234 145.717L204.566 146.112L204.269 146.361L203.938 145.965Z" fill="#4B4B4B"/>
<path d="M204.97 146.194L205.267 145.945L205.598 146.341L205.301 146.589L204.97 146.194Z" fill="#4B4B4B"/>
<path d="M204.476 146.607L204.772 146.359L205.104 146.754L204.807 147.003L204.476 146.607Z" fill="#4B4B4B"/>
<path d="M205.508 146.836L205.805 146.587L206.136 146.983L205.839 147.231L205.508 146.836Z" fill="#4B4B4B"/>
<path d="M205.014 147.25L205.311 147.001L205.642 147.397L205.345 147.645L205.014 147.25Z" fill="#4B4B4B"/>
<path d="M206.046 147.478L206.343 147.229L206.674 147.625L206.378 147.873L206.046 147.478Z" fill="#4B4B4B"/>
<path d="M205.552 147.892L205.849 147.644L206.18 148.039L205.883 148.288L205.552 147.892Z" fill="#4B4B4B"/>
<path d="M203.594 141.039L204.335 140.417L209.179 146.199L208.438 146.82L203.594 141.039Z" fill="#4B4B4B"/>
<path d="M197.778 145.239L198.074 144.991L200.103 147.412L199.807 147.66L197.778 145.239Z" fill="#4B4B4B"/>
<path d="M196.593 143.624L196.643 143.583L197.926 145.115L197.877 145.156L196.593 143.624Z" fill="#4B4B4B"/>
<path d="M197.284 145.653L198.52 144.618L198.768 144.914L197.533 145.949L197.284 145.653Z" fill="#4B4B4B"/>
<path d="M197.011 145.629L198.543 144.345L198.791 144.642L197.26 145.925L197.011 145.629Z" fill="#4B4B4B"/>
<path d="M197.139 145.522L198.415 144.452L198.212 143.95L196.68 145.234L197.139 145.522Z" fill="#4B4B4B"/>
<path d="M202.97 145.514L201.045 145.277L200.945 147.211L202.97 145.514Z" fill="#4B4B4B"/>
<path d="M201.735 146.549L199.395 145.818L199.709 148.247L201.735 146.549Z" fill="#4B4B4B"/>
<path d="M206.411 138.678C206.138 138.907 205.722 138.86 205.482 138.573C205.242 138.287 205.268 137.869 205.541 137.641C205.814 137.412 206.23 137.459 206.47 137.745C206.71 138.032 206.683 138.45 206.411 138.678Z" fill="#FFC44D"/>
<path d="M205.952 137.128L205.992 136.674" stroke="#FFC44D" stroke-width="0.365234" stroke-miterlimit="10"/>
<path d="M205.376 137.443L204.887 136.759" stroke="#FFC44D" stroke-width="0.365234" stroke-miterlimit="10"/>
<path d="M205.139 138.566L204.372 138.956" stroke="#FFC44D" stroke-width="0.365234" stroke-miterlimit="10"/>
<path d="M204.997 138.096L204.509 137.916" stroke="#FFC44D" stroke-width="0.365234" stroke-miterlimit="10"/>
<path d="M206.806 138.347L207.26 138.387" stroke="#FFC44D" stroke-width="0.365234" stroke-miterlimit="10"/>
<path d="M206.535 138.827L207.081 139.378" stroke="#FFC44D" stroke-width="0.365234" stroke-miterlimit="10"/>
<path d="M205.33 138.995L204.812 139.682" stroke="#FFC44D" stroke-width="0.365234" stroke-miterlimit="10"/>
<path d="M206.474 137.448L206.942 136.803" stroke="#FFC44D" stroke-width="0.365234" stroke-miterlimit="10"/>
<path d="M206.862 137.711L207.579 137.363" stroke="#FFC44D" stroke-width="0.365234" stroke-miterlimit="10"/>
<path d="M205.825 139.084L205.917 139.596" stroke="#FFC44D" stroke-width="0.365234" stroke-miterlimit="10"/>
<path d="M192.819 207.128C190.099 225.101 170.286 237.137 148.416 233.827C126.546 230.518 111.181 213.158 113.901 195.186C116.62 177.213 136.433 165.177 158.304 168.487C180.174 171.796 195.538 189.156 192.819 207.128Z" stroke="#2B2B2B" stroke-width="0.858243"/>
<g clip-path="url(#clip1_134_3882)">
<path d="M139.99 220.423L141.571 219.545L141.332 218.37L142.19 218.195L142.538 219.904L144.119 219.027L143.342 215.208L141.126 215.659L141.725 215.912L142.034 217.428L141.176 217.602L140.794 215.727L138.578 216.178L139.178 216.431L139.99 220.423Z" fill="#FFC44D"/>
<path d="M139.16 220.591L139.043 220.018L137.464 220.339L136.813 217.142L138.42 216.815L138.301 216.234L131.296 217.66L131.923 217.907L132.736 221.899L139.16 220.591ZM133.767 217.762L135.013 217.509L135.664 220.707L134.419 220.961L133.767 217.762Z" fill="#FFC44D"/>
<path d="M159.916 215.76L165.383 214.647L164.698 215.393L158.235 216.708L157.422 212.716L156.81 212.466L163.826 211.101L164.736 211.458L159.268 212.571L159.917 215.76L159.916 215.76ZM159.396 219.446L158.994 217.47L158.381 217.219L160.721 216.743L161.197 219.08M169.31 212.327L167.939 212.606L168.53 215.507L166.897 216.688L165.743 211.023L165.131 210.772L167.471 210.296L167.787 211.848L170.003 211.397L169.312 212.326L169.31 212.327Z" fill="#4B4B4B"/>
<path d="M178.188 212.647L176.166 211.777L175.649 209.237L170.166 210.353C169.622 210.137 169.288 210.003 169.162 209.952L177.302 208.295L178.188 212.647ZM172.097 216.861L171.939 216.086L171.312 215.838L179.618 214.147L179.492 213.527L172.446 215L171.129 214.624L181.145 212.585L181.508 214.37L173.784 215.942L173.896 216.496M180.874 211.256L179.268 212.429L178.455 208.435L177.828 208.188L180.153 207.714L180.874 211.254L180.874 211.256Z" fill="#4B4B4B"/>
<path d="M132.158 225.258L132.624 225.163L132.601 225.051L132.135 225.146L132.158 225.258Z" fill="#F4F4F4"/>
<path d="M143.949 220.612C143.357 220.429 142.677 220.416 141.907 220.572L135.689 221.838C134.92 221.995 134.297 222.273 133.826 222.673C133.352 223.073 133.157 223.478 133.24 223.887C133.318 224.268 133.621 224.55 134.142 224.736L134.457 224.671L134.48 224.784L134.369 224.806C134.934 224.958 135.575 224.963 136.296 224.816L142.513 223.55C143.234 223.404 143.824 223.148 144.283 222.788L144.205 222.804L144.182 222.692L144.464 222.634C144.872 222.259 145.04 221.882 144.962 221.5C144.879 221.092 144.541 220.795 143.949 220.612ZM135.406 224.595L134.941 224.69L134.918 224.578L135.384 224.483L135.406 224.595ZM136.333 224.406L135.867 224.501L135.844 224.389L136.31 224.294L136.333 224.406ZM137.26 224.218L136.794 224.313L136.771 224.2L137.237 224.106L137.26 224.218ZM138.18 224.03L137.714 224.125L137.691 224.013L138.157 223.918L138.18 224.03ZM139.106 223.842L138.64 223.937L138.618 223.825L139.083 223.73L139.106 223.842ZM140.033 223.653L139.567 223.748L139.544 223.636L140.01 223.541L140.033 223.653ZM140.959 223.465L140.494 223.559L140.471 223.447L140.936 223.352L140.959 223.465ZM141.886 223.276L141.42 223.371L141.397 223.259L141.863 223.164L141.886 223.276ZM142.812 223.087L142.347 223.182L142.324 223.07L142.79 222.975L142.812 223.087ZM142.702 222.428C142.368 222.662 141.951 222.829 141.446 222.932L137.029 223.831C136.526 223.933 136.075 223.942 135.677 223.858C135.278 223.774 135.058 223.618 135.013 223.396C134.967 223.173 135.111 222.945 135.443 222.711C135.775 222.476 136.194 222.309 136.699 222.207L141.119 221.307C141.622 221.204 142.073 221.196 142.472 221.28C142.87 221.366 143.09 221.519 143.136 221.742C143.181 221.965 143.037 222.193 142.705 222.427L142.702 222.428ZM143.741 222.898L143.275 222.993L143.252 222.881L143.718 222.786L143.741 222.898Z" fill="#FFC44D"/>
<path d="M182.167 215.076L181.937 215.123L181.914 215.011L182.019 214.99L181.582 214.733L148.465 221.475L147.743 217.93L153.225 216.814L152.518 213.34L144.377 214.997L145.368 215.401L150.836 214.288L151.306 216.598L145.297 217.821L145.91 218.071L146.744 222.169L147.144 222.087L147.167 222.2L146.767 222.281L146.856 222.717L182.739 215.412L182.165 215.075L182.167 215.076ZM148.096 222.012L147.63 222.107L147.607 221.995L148.073 221.9L148.096 222.012ZM149.022 221.824L148.557 221.918L148.534 221.806L148.999 221.711L149.022 221.824ZM149.949 221.635L149.483 221.73L149.46 221.618L149.926 221.523L149.949 221.635ZM150.875 221.446L150.41 221.541L150.387 221.429L150.853 221.334L150.875 221.446ZM151.802 221.258L151.336 221.353L151.313 221.24L151.779 221.146L151.802 221.258ZM152.728 221.069L152.263 221.164L152.24 221.052L152.706 220.957L152.728 221.069ZM153.655 220.881L153.189 220.975L153.166 220.863L153.632 220.768L153.655 220.881ZM154.582 220.692L154.116 220.787L154.093 220.675L154.559 220.58L154.582 220.692ZM155.508 220.503L155.042 220.598L155.02 220.486L155.485 220.391L155.508 220.503ZM156.435 220.315L155.969 220.409L155.946 220.297L156.412 220.203L156.435 220.315ZM157.361 220.126L156.896 220.221L156.873 220.109L157.338 220.014L157.361 220.126ZM158.288 219.937L157.822 220.032L157.799 219.92L158.265 219.825L158.288 219.937ZM159.214 219.749L158.749 219.844L158.726 219.731L159.192 219.637L159.214 219.749ZM160.141 219.56L159.675 219.655L159.652 219.543L160.118 219.448L160.141 219.56ZM161.067 219.372L160.602 219.466L160.579 219.354L161.045 219.259L161.067 219.372ZM161.994 219.183L161.528 219.278L161.505 219.166L161.971 219.071L161.994 219.183ZM162.921 218.994L162.455 219.089L162.432 218.977L162.898 218.882L162.921 218.994ZM163.847 218.806L163.381 218.901L163.359 218.788L163.824 218.694L163.847 218.806ZM164.774 218.617L164.308 218.712L164.285 218.6L164.751 218.505L164.774 218.617ZM165.7 218.428L165.234 218.523L165.212 218.411L165.677 218.316L165.7 218.428ZM166.627 218.24L166.161 218.335L166.138 218.223L166.604 218.128L166.627 218.24ZM167.553 218.051L167.088 218.146L167.065 218.034L167.53 217.939L167.553 218.051ZM168.48 217.863L168.014 217.957L167.991 217.845L168.457 217.75L168.48 217.863ZM169.406 217.674L168.941 217.769L168.918 217.657L169.384 217.562L169.406 217.674ZM170.333 217.485L169.867 217.58L169.844 217.468L170.31 217.373L170.333 217.485ZM171.26 217.297L170.794 217.392L170.771 217.279L171.237 217.185L171.26 217.297ZM172.186 217.108L171.72 217.203L171.698 217.091L172.163 216.996L172.186 217.108ZM173.113 216.92L172.647 217.014L172.624 216.902L173.09 216.807L173.113 216.92ZM174.039 216.731L173.573 216.826L173.551 216.714L174.016 216.619L174.039 216.731ZM174.966 216.542L174.5 216.637L174.477 216.525L174.943 216.43L174.966 216.542ZM175.892 216.354L175.427 216.448L175.404 216.336L175.869 216.242L175.892 216.354ZM176.819 216.165L176.353 216.26L176.33 216.148L176.796 216.053L176.819 216.165ZM177.745 215.976L177.28 216.071L177.257 215.959L177.723 215.864L177.745 215.976ZM178.672 215.788L178.206 215.883L178.183 215.77L178.649 215.676L178.672 215.788ZM179.599 215.599L179.133 215.694L179.11 215.582L179.576 215.487L179.599 215.599ZM180.525 215.411L180.059 215.505L180.037 215.393L180.502 215.298L180.525 215.411ZM181.452 215.222L180.986 215.317L180.963 215.205L181.429 215.11L181.452 215.222Z" fill="#4B4B4B"/>
<path d="M154.801 219.171L156.459 218.109L155.342 212.765L153.002 213.241L153.616 213.492L154.801 219.171Z" fill="#4B4B4B"/>
</g>
<path d="M138.82 199.163L135.848 199.769L138.231 211.474L141.203 210.869L138.82 199.163Z" fill="#4B4B4B"/>
<path d="M159.737 193.551L158.251 193.854L160.899 206.86L162.385 206.557L159.737 193.551Z" fill="#4B4B4B"/>
<path d="M142.392 199.597L140.905 199.9L141.17 201.201L142.656 200.898L142.392 199.597Z" fill="#4B4B4B"/>
<path d="M144.808 199.106L143.321 199.408L143.586 200.709L145.072 200.406L144.808 199.106Z" fill="#4B4B4B"/>
<path d="M142.884 202.013L141.397 202.315L141.7 203.802L143.186 203.499L142.884 202.013Z" fill="#4B4B4B"/>
<path d="M145.299 201.521L143.812 201.824L144.115 203.31L145.602 203.008L145.299 201.521Z" fill="#4B4B4B"/>
<path d="M143.375 204.428L141.889 204.731L142.191 206.217L143.678 205.915L143.375 204.428Z" fill="#4B4B4B"/>
<path d="M145.791 203.937L144.305 204.239L144.607 205.726L146.094 205.423L145.791 203.937Z" fill="#4B4B4B"/>
<path d="M143.867 206.844L142.381 207.146L142.683 208.633L144.17 208.33L143.867 206.844Z" fill="#4B4B4B"/>
<path d="M146.282 206.352L144.796 206.655L145.098 208.141L146.585 207.839L146.282 206.352Z" fill="#4B4B4B"/>
<path d="M162.644 195.475L161.157 195.777L161.422 197.078L162.908 196.775L162.644 195.475Z" fill="#4B4B4B"/>
<path d="M165.061 194.983L163.574 195.286L163.839 196.586L165.325 196.284L165.061 194.983Z" fill="#4B4B4B"/>
<path d="M163.136 197.89L161.649 198.193L161.952 199.679L163.438 199.377L163.136 197.89Z" fill="#4B4B4B"/>
<path d="M165.552 197.399L164.065 197.701L164.368 199.188L165.854 198.885L165.552 197.399Z" fill="#4B4B4B"/>
<path d="M163.628 200.306L162.142 200.608L162.444 202.095L163.931 201.792L163.628 200.306Z" fill="#4B4B4B"/>
<path d="M166.043 199.814L164.557 200.117L164.859 201.603L166.346 201.301L166.043 199.814Z" fill="#4B4B4B"/>
<path d="M164.119 202.721L162.633 203.023L162.935 204.51L164.422 204.207L164.119 202.721Z" fill="#4B4B4B"/>
<path d="M166.535 202.229L165.049 202.532L165.351 204.018L166.838 203.716L166.535 202.229Z" fill="#4B4B4B"/>
<path d="M167.474 194.491L166.174 194.756L166.439 196.056L167.739 195.792L167.474 194.491Z" fill="#4B4B4B"/>
<path d="M169.89 193.999L168.59 194.264L168.855 195.565L170.155 195.3L169.89 193.999Z" fill="#4B4B4B"/>
<path d="M167.967 196.907L166.666 197.171L166.969 198.658L168.269 198.393L167.967 196.907Z" fill="#4B4B4B"/>
<path d="M170.383 196.415L169.082 196.68L169.385 198.166L170.685 197.901L170.383 196.415Z" fill="#4B4B4B"/>
<path d="M168.459 199.322L167.158 199.587L167.461 201.073L168.761 200.809L168.459 199.322Z" fill="#4B4B4B"/>
<path d="M170.874 198.83L169.573 199.095L169.876 200.582L171.176 200.317L170.874 198.83Z" fill="#4B4B4B"/>
<path d="M168.95 201.738L167.649 202.002L167.952 203.489L169.253 203.224L168.95 201.738Z" fill="#4B4B4B"/>
<path d="M171.366 201.246L170.065 201.511L170.368 202.997L171.669 202.732L171.366 201.246Z" fill="#4B4B4B"/>
<path d="M149.791 188.416L148.676 188.643L148.978 190.129L150.093 189.903L149.791 188.416Z" fill="#4B4B4B"/>
<path d="M151.648 188.038L150.533 188.265L150.836 189.752L151.951 189.525L151.648 188.038Z" fill="#4B4B4B"/>
<path d="M150.282 190.832L149.167 191.059L149.47 192.545L150.584 192.318L150.282 190.832Z" fill="#4B4B4B"/>
<path d="M152.141 190.453L151.026 190.68L151.329 192.167L152.444 191.94L152.141 190.453Z" fill="#4B4B4B"/>
<path d="M150.775 193.247L149.66 193.474L149.963 194.961L151.078 194.734L150.775 193.247Z" fill="#4B4B4B"/>
<path d="M152.632 192.869L151.518 193.096L151.82 194.582L152.935 194.355L152.632 192.869Z" fill="#4B4B4B"/>
<path d="M151.266 195.663L150.151 195.89L150.454 197.376L151.569 197.149L151.266 195.663Z" fill="#4B4B4B"/>
<path d="M153.124 195.284L152.009 195.511L152.311 196.998L153.426 196.771L153.124 195.284Z" fill="#4B4B4B"/>
<path d="M151.757 198.078L150.643 198.305L150.945 199.791L152.06 199.564L151.757 198.078Z" fill="#4B4B4B"/>
<path d="M153.615 197.7L152.5 197.927L152.803 199.413L153.917 199.186L153.615 197.7Z" fill="#4B4B4B"/>
<path d="M152.25 200.493L151.135 200.72L151.437 202.207L152.552 201.98L152.25 200.493Z" fill="#4B4B4B"/>
<path d="M154.108 200.115L152.993 200.342L153.296 201.829L154.411 201.602L154.108 200.115Z" fill="#4B4B4B"/>
<path d="M152.742 202.909L151.627 203.136L151.93 204.622L153.044 204.395L152.742 202.909Z" fill="#4B4B4B"/>
<path d="M154.599 202.531L153.484 202.758L153.787 204.244L154.902 204.017L154.599 202.531Z" fill="#4B4B4B"/>
<path d="M153.233 205.324L152.118 205.551L152.421 207.038L153.536 206.811L153.233 205.324Z" fill="#4B4B4B"/>
<path d="M155.09 204.946L153.976 205.173L154.278 206.659L155.393 206.432L155.09 204.946Z" fill="#4B4B4B"/>
<path d="M153.692 187.622L152.577 187.849L152.88 189.336L153.995 189.109L153.692 187.622Z" fill="#4B4B4B"/>
<path d="M155.551 187.244L154.437 187.471L154.739 188.957L155.854 188.73L155.551 187.244Z" fill="#4B4B4B"/>
<path d="M154.185 190.037L153.07 190.264L153.373 191.751L154.488 191.524L154.185 190.037Z" fill="#4B4B4B"/>
<path d="M156.043 189.659L154.928 189.886L155.23 191.373L156.345 191.146L156.043 189.659Z" fill="#4B4B4B"/>
<path d="M154.676 192.453L153.562 192.68L153.864 194.166L154.979 193.939L154.676 192.453Z" fill="#4B4B4B"/>
<path d="M156.534 192.074L155.419 192.301L155.722 193.788L156.836 193.561L156.534 192.074Z" fill="#4B4B4B"/>
<path d="M155.168 194.868L154.053 195.095L154.355 196.582L155.47 196.355L155.168 194.868Z" fill="#4B4B4B"/>
<path d="M157.025 194.49L155.91 194.717L156.213 196.203L157.328 195.976L157.025 194.49Z" fill="#4B4B4B"/>
<path d="M155.659 197.283L154.544 197.51L154.847 198.997L155.961 198.77L155.659 197.283Z" fill="#4B4B4B"/>
<path d="M157.518 196.905L156.403 197.132L156.706 198.619L157.821 198.392L157.518 196.905Z" fill="#4B4B4B"/>
<path d="M156.152 199.699L155.037 199.926L155.34 201.413L156.455 201.186L156.152 199.699Z" fill="#4B4B4B"/>
<path d="M158.009 199.321L156.895 199.548L157.197 201.034L158.312 200.807L158.009 199.321Z" fill="#4B4B4B"/>
<path d="M156.643 202.114L155.528 202.341L155.831 203.828L156.946 203.601L156.643 202.114Z" fill="#4B4B4B"/>
<path d="M158.501 201.736L157.386 201.963L157.688 203.45L158.803 203.223L158.501 201.736Z" fill="#4B4B4B"/>
<path d="M157.134 204.53L156.02 204.757L156.322 206.243L157.437 206.016L157.134 204.53Z" fill="#4B4B4B"/>
<path d="M158.993 204.151L157.878 204.378L158.181 205.865L159.295 205.638L158.993 204.151Z" fill="#4B4B4B"/>
<path d="M146.811 187.088L144.024 187.655L148.45 209.394L151.237 208.827L146.811 187.088Z" fill="#4B4B4B"/>
<path d="M167.133 181.403L166.019 181.63L167.872 190.734L168.987 190.507L167.133 181.403Z" fill="#4B4B4B"/>
<path d="M165.588 175.719L165.402 175.756L166.575 181.516L166.761 181.478L165.588 175.719Z" fill="#4B4B4B"/>
<path d="M168.991 181.025L164.346 181.97L164.573 183.085L169.218 182.139L168.991 181.025Z" fill="#4B4B4B"/>
<path d="M169.435 180.354L163.675 181.526L163.902 182.641L169.662 181.469L169.435 180.354Z" fill="#4B4B4B"/>
<path d="M168.955 180.451L164.155 181.428L163.372 180.04L169.132 178.867L168.955 180.451Z" fill="#4B4B4B"/>
<path d="M158.25 193.854L161.234 188.989L165.868 192.303L158.25 193.854Z" fill="#4B4B4B"/>
<path d="M162.896 192.908L165.502 186.186L170.514 191.357L162.896 192.908Z" fill="#4B4B4B"/>
<path d="M136.221 189.244C137.247 189.035 137.901 187.992 137.682 186.915C137.462 185.837 136.453 185.133 135.426 185.342C134.4 185.551 133.746 186.594 133.966 187.671C134.185 188.749 135.195 189.453 136.221 189.244Z" fill="#FFC44D"/>
<path d="M133.493 185.348L132.375 184.608" stroke="#FFC44D" stroke-width="1.07426" stroke-miterlimit="10"/>
<path d="M135.275 184.598L134.598 182.221" stroke="#FFC44D" stroke-width="1.07426" stroke-miterlimit="10"/>
<path d="M138.292 186.113L140.594 185.063" stroke="#FFC44D" stroke-width="1.07426" stroke-miterlimit="10"/>
<path d="M137.471 184.926L137.949 183.474" stroke="#FFC44D" stroke-width="1.07426" stroke-miterlimit="10"/>
<path d="M134.735 189.546L133.995 190.664" stroke="#FFC44D" stroke-width="1.07426" stroke-miterlimit="10"/>
<path d="M136.334 189.801L136.602 192.068" stroke="#FFC44D" stroke-width="1.07426" stroke-miterlimit="10"/>
<path d="M138.929 187.338L141.458 187.404" stroke="#FFC44D" stroke-width="1.07426" stroke-miterlimit="10"/>
<path d="M133.276 187.134L130.933 187.031" stroke="#FFC44D" stroke-width="1.07426" stroke-miterlimit="10"/>
<path d="M133.169 188.51L131.053 189.521" stroke="#FFC44D" stroke-width="1.07426" stroke-miterlimit="10"/>
<path d="M138.227 188.642L139.235 189.791" stroke="#FFC44D" stroke-width="1.07426" stroke-miterlimit="10"/>
<circle r="104.5" transform="matrix(-1 0 0 1 188 168)" stroke="#FFB84C" stroke-width="5"/>
</g>
<defs>
<linearGradient id="paint0_linear_134_3882" x1="107" y1="0" x2="107" y2="214" gradientUnits="userSpaceOnUse">
<stop stop-color="#FFB84C"/>
<stop offset="1" stop-color="white" stop-opacity="0"/>
</linearGradient>
<clipPath id="clip0_134_3882">
<rect width="17.5196" height="2.74049" fill="white" transform="matrix(-0.766485 0.642262 0.642262 0.766485 215.186 143.241)"/>
</clipPath>
<clipPath id="clip1_134_3882">
<rect width="51.5303" height="8.06061" fill="white" transform="translate(130.639 217.793) rotate(-11.5065)"/>
</clipPath>
</defs>
</svg>
