<svg width="151" height="151" viewBox="0 0 151 151" fill="none" xmlns="http://www.w3.org/2000/svg">
<rect width="151" height="151" rx="8" fill="#F5F5F5"/>
<mask id="mask0_2673_32123" style="mask-type:alpha" maskUnits="userSpaceOnUse" x="0" y="0" width="151" height="151">
<rect width="151" height="151" rx="8" fill="#F5F5F5"/>
</mask>
<g mask="url(#mask0_2673_32123)">
<path d="M33 123.75C33 121.837 34.5502 120.287 36.4624 120.287H57.5324C59.4446 120.287 60.9948 121.837 60.9948 123.75V151.392H33V123.75Z" fill="#E2E2E2"/>
<path d="M123.005 115.517C123.005 113.605 124.555 112.055 126.467 112.055H147.537C149.45 112.055 151 113.605 151 115.517V151.488H123.005V115.517Z" fill="#E2E2E2"/>
<rect x="42.3311" y="126.508" width="6.22107" height="6.9987" rx="3.11053" fill="#E2E2E2"/>
<rect x="132.335" y="127.713" width="6.22107" height="6.9987" rx="3.11053" fill="#E2E2E2"/>
<rect x="132.335" y="117.775" width="6.22107" height="6.9987" rx="3.11053" fill="#E2E2E2"/>
<rect x="42.3311" y="136.617" width="6.22107" height="6.9987" rx="3.11053" fill="#E2E2E2"/>
<rect x="132.335" y="137.822" width="6.22107" height="6.9987" rx="3.11053" fill="#E2E2E2"/>
<rect x="51.6641" y="126.508" width="6.22107" height="6.9987" rx="3.11053" fill="#E2E2E2"/>
<rect x="141.669" y="127.713" width="6.22107" height="6.9987" rx="3.11053" fill="#E2E2E2"/>
<rect x="141.669" y="117.775" width="6.22107" height="6.9987" rx="3.11053" fill="#E2E2E2"/>
<rect x="51.6646" y="136.617" width="6.22107" height="6.9987" rx="3.11053" fill="#E2E2E2"/>
<rect x="141.669" y="137.822" width="6.22107" height="6.9987" rx="3.11053" fill="#E2E2E2"/>
<path d="M60.9951 105.085C60.9951 103.173 62.5453 101.623 64.4576 101.623H88.638C90.5503 101.623 92.1004 103.173 92.1004 105.085V151.392H60.9951V105.085Z" fill="#E2E2E2"/>
<path d="M92.0996 124.755C92.0996 123.55 92.726 122.431 93.7536 121.802L107.652 113.289L121.551 121.802C122.579 122.431 123.205 123.55 123.205 124.755V151.393H92.0996V124.755Z" fill="#E2E2E2"/>
<rect x="73.437" y="107.846" width="6.22107" height="6.9987" rx="3.11053" fill="#E2E2E2"/>
<rect x="73.437" y="128.064" width="6.22107" height="6.9987" rx="3.11053" fill="#E2E2E2"/>
<rect x="99.877" y="128.064" width="6.22107" height="6.9987" rx="3.11053" fill="#E2E2E2"/>
<rect x="73.437" y="117.955" width="6.22107" height="6.9987" rx="3.11053" fill="#E2E2E2"/>
<rect x="73.437" y="138.172" width="6.22107" height="6.9987" rx="3.11053" fill="#E2E2E2"/>
<rect x="99.877" y="138.172" width="6.22107" height="6.9987" rx="3.11053" fill="#E2E2E2"/>
<rect x="82.7686" y="107.846" width="6.22107" height="6.9987" rx="3.11053" fill="#E2E2E2"/>
<rect x="82.7686" y="128.064" width="6.22107" height="6.9987" rx="3.11053" fill="#E2E2E2"/>
<rect x="109.208" y="128.064" width="6.22107" height="6.9987" rx="3.11053" fill="#E2E2E2"/>
<rect x="82.7686" y="117.955" width="6.22107" height="6.9987" rx="3.11053" fill="#E2E2E2"/>
<rect x="82.7686" y="138.172" width="6.22107" height="6.9987" rx="3.11053" fill="#E2E2E2"/>
<rect x="109.208" y="138.172" width="6.22107" height="6.9987" rx="3.11053" fill="#E2E2E2"/>
<path fill-rule="evenodd" clip-rule="evenodd" d="M123.449 98.1313L123.207 100.068H126.318V103.957L106.877 103.957V100.068H109.987L109.745 98.1329C110.018 98.3696 110.374 98.5129 110.764 98.5129H111.541C112.4 98.5129 113.097 97.8166 113.097 96.9576C113.097 96.0987 112.4 95.4023 111.541 95.4023H110.764C110.235 95.4023 109.768 95.666 109.487 96.069L109.21 93.8477H123.985L123.707 96.0711C123.426 95.6669 122.958 95.4023 122.429 95.4023H121.651C120.792 95.4023 120.096 96.0987 120.096 96.9576C120.096 97.8166 120.792 98.5129 121.651 98.5129H122.429C122.819 98.5129 123.176 98.369 123.449 98.1313ZM118.541 107.845H123.985V103.957L109.21 103.957L109.21 107.845H114.653V121.066H118.541V107.845ZM114.652 96.9576C114.652 96.0987 115.349 95.4023 116.208 95.4023H116.985C117.844 95.4023 118.541 96.0987 118.541 96.9576C118.541 97.8166 117.844 98.5129 116.985 98.5129H116.208C115.349 98.5129 114.652 97.8166 114.652 96.9576Z" fill="#E2E2E2"/>
<path d="M33 123.896C33 121.984 34.5502 120.434 36.4624 120.434H57.5324C59.4446 120.434 60.9948 121.984 60.9948 123.896V151.539H33V123.896Z" fill="#E2E2E2"/>
<path d="M123.005 115.664C123.005 113.751 124.555 112.201 126.467 112.201H147.537C149.45 112.201 151 113.751 151 115.664V151.635H123.005V115.664Z" fill="#E2E2E2"/>
<rect x="42.3311" y="126.654" width="6.22107" height="6.9987" rx="3.11053" fill="#F5F5F5"/>
<rect x="132.336" y="127.859" width="6.22107" height="6.9987" rx="3.11053" fill="#F5F5F5"/>
<rect x="132.336" y="117.922" width="6.22107" height="6.9987" rx="3.11053" fill="#F5F5F5"/>
<rect x="42.3311" y="136.764" width="6.22107" height="6.9987" rx="3.11053" fill="#F5F5F5"/>
<rect x="132.336" y="137.969" width="6.22107" height="6.9987" rx="3.11053" fill="#F5F5F5"/>
<rect x="51.6641" y="126.654" width="6.22107" height="6.9987" rx="3.11053" fill="#F5F5F5"/>
<rect x="141.669" y="127.859" width="6.22107" height="6.9987" rx="3.11053" fill="#F5F5F5"/>
<rect x="141.669" y="117.922" width="6.22107" height="6.9987" rx="3.11053" fill="#F5F5F5"/>
<rect x="51.6641" y="136.764" width="6.22107" height="6.9987" rx="3.11053" fill="#F5F5F5"/>
<rect x="141.669" y="137.969" width="6.22107" height="6.9987" rx="3.11053" fill="#F5F5F5"/>
<path d="M60.9951 105.234C60.9951 103.322 62.5453 101.771 64.4576 101.771H88.638C90.5503 101.771 92.1004 103.322 92.1004 105.234V151.54H60.9951V105.234Z" fill="#E2E2E2"/>
<path d="M92.0996 124.901C92.0996 123.696 92.726 122.578 93.7536 121.949L107.652 113.436L121.551 121.949C122.579 122.578 123.205 123.696 123.205 124.901V151.54H92.0996V124.901Z" fill="#E2E2E2"/>
<rect x="73.437" y="107.992" width="6.22107" height="6.9987" rx="3.11053" fill="#F5F5F5"/>
<rect x="73.437" y="128.211" width="6.22107" height="6.9987" rx="3.11053" fill="#F5F5F5"/>
<rect x="99.877" y="128.211" width="6.22107" height="6.9987" rx="3.11053" fill="#F5F5F5"/>
<rect x="73.437" y="118.102" width="6.22107" height="6.9987" rx="3.11053" fill="#F5F5F5"/>
<rect x="73.437" y="138.32" width="6.22107" height="6.9987" rx="3.11053" fill="#F5F5F5"/>
<rect x="99.877" y="138.32" width="6.22107" height="6.9987" rx="3.11053" fill="#F5F5F5"/>
<rect x="82.7686" y="107.992" width="6.22107" height="6.9987" rx="3.11053" fill="#F5F5F5"/>
<rect x="82.7686" y="128.211" width="6.22107" height="6.9987" rx="3.11053" fill="#F5F5F5"/>
<rect x="109.208" y="128.211" width="6.22107" height="6.9987" rx="3.11053" fill="#F5F5F5"/>
<rect x="82.7686" y="118.102" width="6.22107" height="6.9987" rx="3.11053" fill="#F5F5F5"/>
<rect x="82.7686" y="138.32" width="6.22107" height="6.9987" rx="3.11053" fill="#F5F5F5"/>
<rect x="109.208" y="138.32" width="6.22107" height="6.9987" rx="3.11053" fill="#F5F5F5"/>
<path fill-rule="evenodd" clip-rule="evenodd" d="M123.449 98.2778L123.207 100.215H126.318V104.103L106.877 104.103V100.215H109.987L109.745 98.2794C110.018 98.5161 110.374 98.6594 110.764 98.6594H111.541C112.4 98.6594 113.097 97.963 113.097 97.1041C113.097 96.2451 112.4 95.5488 111.541 95.5488H110.764C110.235 95.5488 109.768 95.8125 109.487 96.2155L109.21 93.9941H123.985L123.707 96.2175C123.426 95.8134 122.958 95.5488 122.429 95.5488H121.651C120.792 95.5488 120.096 96.2451 120.096 97.1041C120.096 97.963 120.792 98.6594 121.651 98.6594H122.429C122.819 98.6594 123.176 98.5155 123.449 98.2778ZM118.541 107.992H123.985V104.104L109.21 104.104L109.21 107.992H114.653V121.211H118.541V107.992ZM114.652 97.1041C114.652 96.2451 115.349 95.5488 116.208 95.5488H116.985C117.844 95.5488 118.541 96.2451 118.541 97.1041C118.541 97.963 117.844 98.6594 116.985 98.6594H116.208C115.349 98.6594 114.652 97.963 114.652 97.1041Z" fill="#E2E2E2"/>
<path d="M5.00488 115.517C5.00488 113.605 6.55507 112.055 8.46732 112.055H29.5373C31.4496 112.055 32.9998 113.605 32.9998 115.517V151.488H5.00488V115.517Z" fill="#E2E2E2"/>
<rect x="14.3354" y="127.713" width="6.22107" height="6.9987" rx="3.11053" fill="#E2E2E2"/>
<rect x="14.3354" y="117.775" width="6.22107" height="6.9987" rx="3.11053" fill="#E2E2E2"/>
<rect x="14.3354" y="137.822" width="6.22107" height="6.9987" rx="3.11053" fill="#E2E2E2"/>
<rect x="23.6689" y="127.713" width="6.22107" height="6.9987" rx="3.11053" fill="#E2E2E2"/>
<rect x="23.6689" y="117.775" width="6.22107" height="6.9987" rx="3.11053" fill="#E2E2E2"/>
<rect x="23.6689" y="137.822" width="6.22107" height="6.9987" rx="3.11053" fill="#E2E2E2"/>
<path d="M-25.9004 124.755C-25.9004 123.55 -25.274 122.431 -24.2464 121.802L-10.3477 113.289L3.55097 121.802C4.5785 122.431 5.20494 123.55 5.20494 124.755V151.393H-25.9004V124.755Z" fill="#E2E2E2"/>
<path fill-rule="evenodd" clip-rule="evenodd" d="M5.44912 98.1311L5.20695 100.068H8.31779V103.957L-11.123 103.957V100.068H-8.0129L-8.2548 98.1332C-7.98196 98.3697 -7.62594 98.5129 -7.23648 98.5129H-6.45885C-5.5999 98.5129 -4.90358 97.8166 -4.90358 96.9576C-4.90358 96.0987 -5.5999 95.4023 -6.45885 95.4023H-7.23648C-7.76492 95.4023 -8.2318 95.6659 -8.51286 96.0687L-8.79049 93.8477H5.98454L5.70658 96.0714C5.42572 95.667 4.95795 95.4023 4.42836 95.4023H3.65073C2.79178 95.4023 2.09546 96.0987 2.09546 96.9576C2.09546 97.8166 2.79177 98.5129 3.65072 98.5129H4.42836C4.81897 98.5129 5.17596 98.3689 5.44912 98.1311ZM0.540915 107.845H5.98454V103.957L-8.79049 103.957L-8.79049 107.845H-3.34725V121.066H0.540915V107.845ZM-3.34766 96.9576C-3.34766 96.0987 -2.65134 95.4023 -1.79239 95.4023H-1.01476C-0.155806 95.4023 0.54051 96.0987 0.54051 96.9576C0.54051 97.8166 -0.155807 98.5129 -1.01476 98.5129H-1.79239C-2.65134 98.5129 -3.34766 97.8166 -3.34766 96.9576Z" fill="#E2E2E2"/>
<path d="M5.00488 115.664C5.00488 113.751 6.55507 112.201 8.46732 112.201H29.5373C31.4496 112.201 32.9998 113.751 32.9998 115.664V151.635H5.00488V115.664Z" fill="#E2E2E2"/>
<rect x="14.3354" y="127.859" width="6.22107" height="6.9987" rx="3.11053" fill="#F5F5F5"/>
<rect x="14.3354" y="117.922" width="6.22107" height="6.9987" rx="3.11053" fill="#F5F5F5"/>
<rect x="14.3354" y="137.969" width="6.22107" height="6.9987" rx="3.11053" fill="#F5F5F5"/>
<rect x="23.6689" y="127.859" width="6.22107" height="6.9987" rx="3.11053" fill="#F5F5F5"/>
<rect x="23.6689" y="117.922" width="6.22107" height="6.9987" rx="3.11053" fill="#F5F5F5"/>
<rect x="23.6689" y="137.969" width="6.22107" height="6.9987" rx="3.11053" fill="#F5F5F5"/>
<path d="M-25.9004 124.901C-25.9004 123.696 -25.274 122.578 -24.2464 121.949L-10.3477 113.436L3.55097 121.949C4.5785 122.578 5.20494 123.696 5.20494 124.901V151.54H-25.9004V124.901Z" fill="#E2E2E2"/>
<path fill-rule="evenodd" clip-rule="evenodd" d="M5.44912 98.2775L5.20695 100.215H8.31779V104.103L-11.123 104.103V100.215H-8.0129L-8.2548 98.2797C-7.98196 98.5162 -7.62594 98.6594 -7.23648 98.6594H-6.45885C-5.5999 98.6594 -4.90358 97.963 -4.90358 97.1041C-4.90358 96.2451 -5.5999 95.5488 -6.45885 95.5488H-7.23648C-7.76492 95.5488 -8.2318 95.8124 -8.51286 96.2152L-8.79049 93.9941H5.98454L5.70658 96.2178C5.42572 95.8135 4.95795 95.5488 4.42836 95.5488H3.65073C2.79178 95.5488 2.09546 96.2451 2.09546 97.1041C2.09546 97.963 2.79177 98.6594 3.65072 98.6594H4.42836C4.81897 98.6594 5.17596 98.5154 5.44912 98.2775ZM0.540915 107.992H5.98454V104.104L-8.79049 104.104L-8.79049 107.992H-3.34725V121.211H0.540915V107.992ZM-3.34766 97.1041C-3.34766 96.2451 -2.65134 95.5488 -1.79239 95.5488H-1.01476C-0.155806 95.5488 0.54051 96.2451 0.54051 97.1041C0.54051 97.963 -0.155807 98.6594 -1.01476 98.6594H-1.79239C-2.65134 98.6594 -3.34766 97.963 -3.34766 97.1041Z" fill="#E2E2E2"/>
</g>
<rect x="33" y="64" width="85" height="24" rx="12" fill="#E2E2E2"/>
<path d="M48.9336 73.332C48.9336 75.166 50.1465 77.0586 51.6289 77.7852L51.0664 78.5234C49.918 77.9258 48.957 76.6895 48.4941 75.2422C48.0312 76.7773 47.0469 78.0957 45.875 78.7227L45.2891 77.9844C46.8125 77.2344 48.0195 75.2363 48.0312 73.332V71.4336H48.9336V73.332ZM52.5898 80.9492V70.5312H53.5039V74.7617H55.25V75.5586H53.5039V80.9492H52.5898ZM59.5625 72.7695C59.5684 74.1758 60.6758 75.4414 62.2344 75.9336L61.7656 76.6719C60.5527 76.2559 59.5918 75.4004 59.1172 74.3047C58.666 75.4883 57.6875 76.4258 56.4453 76.8828L55.9648 76.1445C57.5293 75.5996 58.6309 74.2461 58.6367 72.7695V72.1602H56.1992V71.4102H61.9648V72.1602H59.5625V72.7695ZM57.6875 80.7266V77.457H58.6016V79.9531H64.7422V80.7266H57.6875ZM63.5 78.1836V70.543H64.4141V78.1836H63.5ZM74.5391 71.832C74.5332 73.1152 76.2793 74.1582 78.125 74.4102L77.7617 75.1367C76.0801 74.8906 74.5039 74.0527 73.9414 72.834C73.373 74.0527 71.8086 74.8906 70.1211 75.1367L69.7812 74.4102C71.6152 74.1582 73.3496 73.1152 73.3438 71.832V71.8086H70.0625V71.0586H77.8438V71.8086H74.5391V71.832ZM69.1836 76.6602V75.8984H78.7227V76.6602H74.4805V78.793H73.5664V76.6602H69.1836ZM70.4023 80.7266V77.75H71.3281V79.9531H77.6562V80.7266H70.4023ZM88.1562 70.5312V80.9727H87.2305V70.5312H88.1562ZM80.1758 78.4531V71.4219H81.0898V74.1758H84.1953V71.4219H85.0977V78.4531H80.1758ZM81.0898 77.6797H84.1953V74.9141H81.0898V77.6797ZM99.4297 75.4062V76.168H95.1289V77.2812C97.0918 77.3691 98.2578 78.0078 98.2695 79.1094C98.2578 80.2754 96.916 80.9258 94.6836 80.9258C92.4219 80.9258 91.0801 80.2754 91.0859 79.1094C91.0801 78.0078 92.2402 77.3691 94.2266 77.2812V76.168H89.9375V75.4062H99.4297ZM90.4766 74.0469C92.2812 73.8594 94.0215 72.9395 94.0859 71.7734H90.8047V71.0234H98.5859V71.7734H95.2812C95.3457 72.9395 97.0684 73.8594 98.9023 74.0469L98.5625 74.7734C96.8574 74.5684 95.2578 73.8008 94.6836 72.6465C94.1094 73.8008 92.5215 74.5684 90.8047 74.7734L90.4766 74.0469ZM92.0234 79.1094C92.0117 79.8008 93.0137 80.2168 94.6836 80.2109C96.3359 80.2168 97.3379 79.8008 97.3438 79.1094C97.3379 78.4004 96.3359 77.9961 94.6836 77.9844C93.0137 77.9961 92.0117 78.4004 92.0234 79.1094ZM101.41 80.0703C101 80.0645 100.648 79.7246 100.66 79.3086C100.648 78.8984 101 78.5586 101.41 78.5586C101.826 78.5586 102.166 78.8984 102.16 79.3086C102.166 79.7246 101.826 80.0645 101.41 80.0703ZM104.457 80.0703C104.047 80.0645 103.695 79.7246 103.707 79.3086C103.695 78.8984 104.047 78.5586 104.457 78.5586C104.873 78.5586 105.213 78.8984 105.207 79.3086C105.213 79.7246 104.873 80.0645 104.457 80.0703Z" fill="white"/>
</svg>
