<svg width="16" height="16" viewBox="0 0 16 16" fill="none" xmlns="http://www.w3.org/2000/svg">
<path d="M10.4733 5.52672C10.4114 5.46423 10.3376 5.41464 10.2564 5.38079C10.1751 5.34695 10.088 5.32952 9.99999 5.32952C9.91198 5.32952 9.82485 5.34695 9.74361 5.38079C9.66237 5.41464 9.58863 5.46423 9.52666 5.52672L7.99999 7.06005L6.47333 5.52672C6.34779 5.40118 6.17753 5.33066 5.99999 5.33066C5.82246 5.33066 5.65219 5.40118 5.52666 5.52672C5.40112 5.65226 5.3306 5.82252 5.3306 6.00005C5.3306 6.17759 5.40112 6.34785 5.52666 6.47339L7.05999 8.00005L5.52666 9.52672C5.46417 9.58869 5.41458 9.66243 5.38073 9.74367C5.34689 9.82491 5.32946 9.91205 5.32946 10.0001C5.32946 10.0881 5.34689 10.1752 5.38073 10.2564C5.41458 10.3377 5.46417 10.4114 5.52666 10.4734C5.58863 10.5359 5.66237 10.5855 5.74361 10.6193C5.82485 10.6532 5.91198 10.6706 5.99999 10.6706C6.088 10.6706 6.17514 10.6532 6.25638 10.6193C6.33762 10.5855 6.41135 10.5359 6.47333 10.4734L7.99999 8.94005L9.52666 10.4734C9.58863 10.5359 9.66237 10.5855 9.74361 10.6193C9.82485 10.6532 9.91198 10.6706 9.99999 10.6706C10.088 10.6706 10.1751 10.6532 10.2564 10.6193C10.3376 10.5855 10.4114 10.5359 10.4733 10.4734C10.5358 10.4114 10.5854 10.3377 10.6193 10.2564C10.6531 10.1752 10.6705 10.0881 10.6705 10.0001C10.6705 9.91205 10.6531 9.82491 10.6193 9.74367C10.5854 9.66243 10.5358 9.58869 10.4733 9.52672L8.93999 8.00005L10.4733 6.47339C10.5358 6.41141 10.5854 6.33768 10.6193 6.25644C10.6531 6.1752 10.6705 6.08806 10.6705 6.00005C10.6705 5.91205 10.6531 5.82491 10.6193 5.74367C10.5854 5.66243 10.5358 5.5887 10.4733 5.52672ZM12.7133 3.28672C12.0983 2.64998 11.3627 2.1421 10.5494 1.79271C9.736 1.44332 8.8612 1.25941 7.976 1.25172C7.0908 1.24402 6.21294 1.4127 5.39363 1.74791C4.57432 2.08311 3.82998 2.57814 3.20403 3.20409C2.57807 3.83004 2.08305 4.57438 1.74785 5.39369C1.41264 6.213 1.24396 7.09087 1.25166 7.97606C1.25935 8.86126 1.44326 9.73606 1.79265 10.5494C2.14204 11.3628 2.64992 12.0984 3.28666 12.7134C3.90164 13.3501 4.63727 13.858 5.45063 14.2074C6.26399 14.5568 7.13879 14.7407 8.02398 14.7484C8.90918 14.7561 9.78704 14.5874 10.6064 14.2522C11.4257 13.917 12.17 13.422 12.796 12.796C13.4219 12.1701 13.9169 11.4257 14.2521 10.6064C14.5873 9.7871 14.756 8.90924 14.7483 8.02404C14.7406 7.13885 14.5567 6.26405 14.2073 5.45069C13.8579 4.63733 13.3501 3.9017 12.7133 3.28672ZM11.7733 11.7734C10.9014 12.6463 9.75368 13.1899 8.52585 13.3116C7.29802 13.4332 6.066 13.1254 5.03967 12.4406C4.01335 11.7557 3.25623 10.7362 2.89731 9.55571C2.53838 8.37523 2.59986 7.10681 3.07127 5.96658C3.54267 4.82634 4.39484 3.88482 5.48259 3.30243C6.57033 2.72004 7.82635 2.53281 9.03666 2.77263C10.247 3.01246 11.3367 3.66451 12.1202 4.61769C12.9036 5.57087 13.3324 6.76621 13.3333 8.00005C13.3357 8.70091 13.1991 9.39528 12.9313 10.043C12.6635 10.6907 12.2699 11.2788 11.7733 11.7734Z" fill="#4B4B4B"/>
</svg>
