<svg width="19" height="19" viewBox="0 0 19 19" fill="none" xmlns="http://www.w3.org/2000/svg">
<path d="M16.1975 7.62359C16.0863 6.46689 15.6775 5.35869 15.0109 4.4069C14.3443 3.45511 13.4425 2.69216 12.3935 2.19235C11.3445 1.69254 10.1839 1.47291 9.02474 1.55483C7.86561 1.63676 6.74745 2.01745 5.77913 2.65984C4.94725 3.2161 4.24888 3.9497 3.73421 4.80794C3.21954 5.66618 2.90134 6.62775 2.80247 7.62359C2.70547 8.6129 2.82992 9.6114 3.16677 10.5466C3.50362 11.4819 4.04443 12.3304 4.74997 13.0307L8.9458 17.2344C9.0194 17.3086 9.10695 17.3675 9.20343 17.4077C9.2999 17.4479 9.40337 17.4686 9.50788 17.4686C9.61239 17.4686 9.71587 17.4479 9.81234 17.4077C9.90881 17.3675 9.99637 17.3086 10.07 17.2344L14.25 13.0307C14.9555 12.3304 15.4963 11.4819 15.8332 10.5466C16.17 9.6114 16.2945 8.6129 16.1975 7.62359ZM13.1416 11.9144L9.49997 15.5561L5.8583 11.9144C5.32162 11.3777 4.91052 10.7288 4.65455 10.0142C4.39857 9.2997 4.30409 8.53732 4.37788 7.78192C4.45216 7.01488 4.69595 6.27392 5.09163 5.61263C5.48731 4.95134 6.02499 4.38623 6.6658 3.95817C7.50571 3.40023 8.49163 3.10261 9.49997 3.10261C10.5083 3.10261 11.4942 3.40023 12.3341 3.95817C12.973 4.38458 13.5095 4.94719 13.9051 5.60558C14.3007 6.26398 14.5455 7.00181 14.622 7.76609C14.6983 8.52405 14.605 9.28947 14.3489 10.0069C14.0929 10.7244 13.6805 11.376 13.1416 11.9144ZM9.49997 4.74984C8.79537 4.74984 8.1066 4.95877 7.52075 5.35023C6.9349 5.74168 6.47828 6.29807 6.20865 6.94903C5.93901 7.59999 5.86846 8.31629 6.00592 9.00735C6.14338 9.6984 6.48267 10.3332 6.9809 10.8314C7.47912 11.3296 8.1139 11.6689 8.80496 11.8064C9.49601 11.9438 10.2123 11.8733 10.8633 11.6037C11.5142 11.334 12.0706 10.8774 12.4621 10.2916C12.8535 9.70571 13.0625 9.01693 13.0625 8.31234C13.0604 7.36815 12.6844 6.46322 12.0167 5.79558C11.3491 5.12793 10.4442 4.75193 9.49997 4.74984ZM9.49997 10.2915C9.10852 10.2915 8.72587 10.1754 8.4004 9.95795C8.07493 9.74048 7.82125 9.43138 7.67145 9.06973C7.52166 8.70809 7.48246 8.31014 7.55883 7.92622C7.6352 7.5423 7.82369 7.18965 8.10048 6.91286C8.37728 6.63606 8.72993 6.44757 9.11385 6.3712C9.49777 6.29483 9.89572 6.33403 10.2574 6.48383C10.619 6.63362 10.9281 6.8873 11.1456 7.21277C11.3631 7.53824 11.4791 7.9209 11.4791 8.31234C11.4791 8.83724 11.2706 9.34065 10.8994 9.71182C10.5283 10.083 10.0249 10.2915 9.49997 10.2915Z" fill="#FFB84C"/>
</svg>
