<svg width="44" height="44" viewBox="0 0 44 44" fill="none" xmlns="http://www.w3.org/2000/svg">
<circle cx="22" cy="22" r="22" fill="#FFB84C" fill-opacity="0.15"/>
<path d="M9.16699 27.833H26.667V30.1663H9.16699V27.833Z" fill="#FFB84C"/>
<path d="M9.16699 33.6667V32.5H26.702V33.6667C26.702 34.2967 26.177 34.8333 25.5003 34.8333H10.3337C9.69199 34.8333 9.16699 34.2967 9.16699 33.6667ZM26.702 25.5C26.702 16.1667 9.16699 16.1667 9.16699 25.5H26.702Z" fill="#FFB84C"/>
<path d="M29.0705 34.8332H31.0071C31.9871 34.8332 32.7921 34.0748 32.9088 33.1182L34.8338 13.8915H29.0005V9.1665H26.7021V13.8915H20.9038L21.2538 16.6215C23.2488 17.1698 25.1155 18.1615 26.2355 19.2582C27.9155 20.9148 29.0705 22.6298 29.0705 25.4298V34.8332Z" fill="#FFB84C"/>
</svg>
